<?xml version="1.0" encoding="utf-8" standalone="no"?>
<!DOCTYPE svg PUBLIC "-//W3C//DTD SVG 1.1//EN"
  "http://www.w3.org/Graphics/SVG/1.1/DTD/svg11.dtd">
<svg xmlns:xlink="http://www.w3.org/1999/xlink" width="515.77pt" height="251.982852pt" viewBox="0 0 515.77 251.982852" xmlns="http://www.w3.org/2000/svg" version="1.1">
 <metadata>
  <rdf:RDF xmlns:dc="http://purl.org/dc/elements/1.1/" xmlns:cc="http://creativecommons.org/ns#" xmlns:rdf="http://www.w3.org/1999/02/22-rdf-syntax-ns#">
   <cc:Work>
    <dc:type rdf:resource="http://purl.org/dc/dcmitype/StillImage"/>
    <dc:date>2026-05-19T19:34:50.272362</dc:date>
    <dc:format>image/svg+xml</dc:format>
    <dc:creator>
     <cc:Agent>
      <dc:title>Matplotlib v3.7.2, https://matplotlib.org/</dc:title>
     </cc:Agent>
    </dc:creator>
   </cc:Work>
  </rdf:RDF>
 </metadata>
 <defs>
  <style type="text/css">*{stroke-linejoin: round; stroke-linecap: butt}</style>
 </defs>
 <g id="figure_1">
  <g id="patch_1">
   <path d="M 0 251.982852 
L 515.77 251.982852 
L 515.77 0 
L 0 0 
z
" style="fill: #ffffff"/>
  </g>
  <g id="axes_1">
   <g id="patch_2">
    <path d="M 34.605 209.652597 
L 250.230625 209.652597 
L 250.230625 19.02375 
L 34.605 19.02375 
z
" style="fill: #ffffff"/>
   </g>
   <g id="patch_3">
    <path d="M 44.406165 209.652597 
L 49.073386 209.652597 
L 49.073386 28.101314 
L 44.406165 28.101314 
z
" clip-path="url(#pbc4bb08807)" style="fill: #4c72b0; stroke: #ffffff; stroke-width: 0.3; stroke-linejoin: miter"/>
   </g>
   <g id="patch_4">
    <path d="M 57.741083 209.652597 
L 62.408304 209.652597 
L 62.408304 32.800289 
L 57.741083 32.800289 
z
" clip-path="url(#pbc4bb08807)" style="fill: #4c72b0; stroke: #ffffff; stroke-width: 0.3; stroke-linejoin: miter"/>
   </g>
   <g id="patch_5">
    <path d="M 71.076001 209.652597 
L 75.743222 209.652597 
L 75.743222 34.081827 
L 71.076001 34.081827 
z
" clip-path="url(#pbc4bb08807)" style="fill: #4c72b0; stroke: #ffffff; stroke-width: 0.3; stroke-linejoin: miter"/>
   </g>
   <g id="patch_6">
    <path d="M 84.410919 209.652597 
L 89.07814 209.652597 
L 89.07814 51.596186 
L 84.410919 51.596186 
z
" clip-path="url(#pbc4bb08807)" style="fill: #4c72b0; stroke: #ffffff; stroke-width: 0.3; stroke-linejoin: miter"/>
   </g>
   <g id="patch_7">
    <path d="M 97.745837 209.652597 
L 102.413058 209.652597 
L 102.413058 139.595161 
L 97.745837 139.595161 
z
" clip-path="url(#pbc4bb08807)" style="fill: #4c72b0; stroke: #ffffff; stroke-width: 0.3; stroke-linejoin: miter"/>
   </g>
   <g id="patch_8">
    <path d="M 111.080755 209.652597 
L 115.747976 209.652597 
L 115.747976 96.877212 
L 111.080755 96.877212 
z
" clip-path="url(#pbc4bb08807)" style="fill: #4c72b0; stroke: #ffffff; stroke-width: 0.3; stroke-linejoin: miter"/>
   </g>
   <g id="patch_9">
    <path d="M 124.415673 209.652597 
L 129.082894 209.652597 
L 129.082894 161.381315 
L 124.415673 161.381315 
z
" clip-path="url(#pbc4bb08807)" style="fill: #4c72b0; stroke: #ffffff; stroke-width: 0.3; stroke-linejoin: miter"/>
   </g>
   <g id="patch_10">
    <path d="M 137.750591 209.652597 
L 142.417812 209.652597 
L 142.417812 94.741315 
L 137.750591 94.741315 
z
" clip-path="url(#pbc4bb08807)" style="fill: #4c72b0; stroke: #ffffff; stroke-width: 0.3; stroke-linejoin: miter"/>
   </g>
   <g id="patch_11">
    <path d="M 151.085509 209.652597 
L 155.752731 209.652597 
L 155.752731 182.74029 
L 151.085509 182.74029 
z
" clip-path="url(#pbc4bb08807)" style="fill: #4c72b0; stroke: #ffffff; stroke-width: 0.3; stroke-linejoin: miter"/>
   </g>
   <g id="patch_12">
    <path d="M 164.420427 209.652597 
L 169.087649 209.652597 
L 169.087649 183.167469 
L 164.420427 183.167469 
z
" clip-path="url(#pbc4bb08807)" style="fill: #4c72b0; stroke: #ffffff; stroke-width: 0.3; stroke-linejoin: miter"/>
   </g>
   <g id="patch_13">
    <path d="M 177.755345 209.652597 
L 182.422567 209.652597 
L 182.422567 183.167469 
L 177.755345 183.167469 
z
" clip-path="url(#pbc4bb08807)" style="fill: #4c72b0; stroke: #ffffff; stroke-width: 0.3; stroke-linejoin: miter"/>
   </g>
   <g id="patch_14">
    <path d="M 191.090263 209.652597 
L 195.757485 209.652597 
L 195.757485 206.662341 
L 191.090263 206.662341 
z
" clip-path="url(#pbc4bb08807)" style="fill: #4c72b0; stroke: #ffffff; stroke-width: 0.3; stroke-linejoin: miter"/>
   </g>
   <g id="patch_15">
    <path d="M 204.425181 209.652597 
L 209.092403 209.652597 
L 209.092403 207.08952 
L 204.425181 207.08952 
z
" clip-path="url(#pbc4bb08807)" style="fill: #4c72b0; stroke: #ffffff; stroke-width: 0.3; stroke-linejoin: miter"/>
   </g>
   <g id="patch_16">
    <path d="M 217.7601 209.652597 
L 222.427321 209.652597 
L 222.427321 207.5167 
L 217.7601 207.5167 
z
" clip-path="url(#pbc4bb08807)" style="fill: #4c72b0; stroke: #ffffff; stroke-width: 0.3; stroke-linejoin: miter"/>
   </g>
   <g id="patch_17">
    <path d="M 231.095018 209.652597 
L 235.762239 209.652597 
L 235.762239 159.245418 
L 231.095018 159.245418 
z
" clip-path="url(#pbc4bb08807)" style="fill: #4c72b0; stroke: #ffffff; stroke-width: 0.3; stroke-linejoin: miter"/>
   </g>
   <g id="patch_18">
    <path d="M 49.073386 209.652597 
L 53.740607 209.652597 
L 53.740607 71.673622 
L 49.073386 71.673622 
z
" clip-path="url(#pbc4bb08807)" style="fill: #c44e52; stroke: #ffffff; stroke-width: 0.3; stroke-linejoin: miter"/>
   </g>
   <g id="patch_19">
    <path d="M 62.408304 209.652597 
L 67.075525 209.652597 
L 67.075525 81.071571 
L 62.408304 81.071571 
z
" clip-path="url(#pbc4bb08807)" style="fill: #c44e52; stroke: #ffffff; stroke-width: 0.3; stroke-linejoin: miter"/>
   </g>
   <g id="patch_20">
    <path d="M 75.743222 209.652597 
L 80.410444 209.652597 
L 80.410444 82.780289 
L 75.743222 82.780289 
z
" clip-path="url(#pbc4bb08807)" style="fill: #c44e52; stroke: #ffffff; stroke-width: 0.3; stroke-linejoin: miter"/>
   </g>
   <g id="patch_21">
    <path d="M 89.07814 209.652597 
L 93.745362 209.652597 
L 93.745362 123.78952 
L 89.07814 123.78952 
z
" clip-path="url(#pbc4bb08807)" style="fill: #c44e52; stroke: #ffffff; stroke-width: 0.3; stroke-linejoin: miter"/>
   </g>
   <g id="patch_22">
    <path d="M 102.413058 209.652597 
L 107.08028 209.652597 
L 107.08028 37.072083 
L 102.413058 37.072083 
z
" clip-path="url(#pbc4bb08807)" style="fill: #c44e52; stroke: #ffffff; stroke-width: 0.3; stroke-linejoin: miter"/>
   </g>
   <g id="patch_23">
    <path d="M 115.747976 209.652597 
L 120.415198 209.652597 
L 120.415198 159.245418 
L 115.747976 159.245418 
z
" clip-path="url(#pbc4bb08807)" style="fill: #c44e52; stroke: #ffffff; stroke-width: 0.3; stroke-linejoin: miter"/>
   </g>
   <g id="patch_24">
    <path d="M 129.082894 209.652597 
L 133.750116 209.652597 
L 133.750116 106.70234 
L 129.082894 106.70234 
z
" clip-path="url(#pbc4bb08807)" style="fill: #c44e52; stroke: #ffffff; stroke-width: 0.3; stroke-linejoin: miter"/>
   </g>
   <g id="patch_25">
    <path d="M 142.417812 209.652597 
L 147.085034 209.652597 
L 147.085034 197.264392 
L 142.417812 197.264392 
z
" clip-path="url(#pbc4bb08807)" style="fill: #c44e52; stroke: #ffffff; stroke-width: 0.3; stroke-linejoin: miter"/>
   </g>
   <g id="patch_26">
    <path d="M 155.752731 209.652597 
L 160.419952 209.652597 
L 160.419952 125.498238 
L 155.752731 125.498238 
z
" clip-path="url(#pbc4bb08807)" style="fill: #c44e52; stroke: #ffffff; stroke-width: 0.3; stroke-linejoin: miter"/>
   </g>
   <g id="patch_27">
    <path d="M 169.087649 209.652597 
L 173.75487 209.652597 
L 173.75487 148.56593 
L 169.087649 148.56593 
z
" clip-path="url(#pbc4bb08807)" style="fill: #c44e52; stroke: #ffffff; stroke-width: 0.3; stroke-linejoin: miter"/>
   </g>
   <g id="patch_28">
    <path d="M 182.422567 209.652597 
L 187.089788 209.652597 
L 187.089788 148.56593 
L 182.422567 148.56593 
z
" clip-path="url(#pbc4bb08807)" style="fill: #c44e52; stroke: #ffffff; stroke-width: 0.3; stroke-linejoin: miter"/>
   </g>
   <g id="patch_29">
    <path d="M 195.757485 209.652597 
L 200.424706 209.652597 
L 200.424706 137.459264 
L 195.757485 137.459264 
z
" clip-path="url(#pbc4bb08807)" style="fill: #c44e52; stroke: #ffffff; stroke-width: 0.3; stroke-linejoin: miter"/>
   </g>
   <g id="patch_30">
    <path d="M 209.092403 209.652597 
L 213.759624 209.652597 
L 213.759624 146.430033 
L 209.092403 146.430033 
z
" clip-path="url(#pbc4bb08807)" style="fill: #c44e52; stroke: #ffffff; stroke-width: 0.3; stroke-linejoin: miter"/>
   </g>
   <g id="patch_31">
    <path d="M 222.427321 209.652597 
L 227.094542 209.652597 
L 227.094542 146.430033 
L 222.427321 146.430033 
z
" clip-path="url(#pbc4bb08807)" style="fill: #c44e52; stroke: #ffffff; stroke-width: 0.3; stroke-linejoin: miter"/>
   </g>
   <g id="patch_32">
    <path d="M 235.762239 209.652597 
L 240.42946 209.652597 
L 240.42946 200.681828 
L 235.762239 200.681828 
z
" clip-path="url(#pbc4bb08807)" style="fill: #c44e52; stroke: #ffffff; stroke-width: 0.3; stroke-linejoin: miter"/>
   </g>
   <g id="matplotlib.axis_1">
    <g id="xtick_1">
     <g id="line2d_1">
      <defs>
       <path id="m54284d9f54" d="M 0 0 
L 0 3.5 
" style="stroke: #000000; stroke-width: 0.8"/>
      </defs>
      <g>
       <use xlink:href="#m54284d9f54" x="49.073386" y="209.652597" style="stroke: #000000; stroke-width: 0.8"/>
      </g>
     </g>
     <g id="text_1">
      <!-- benzene -->
      <g transform="translate(33.379704 234.35706) rotate(-45) scale(0.055 -0.055)">
       <defs>
        <path id="ArialMT-62" d="M 941 0 
L 419 0 
L 419 4581 
L 981 4581 
L 981 2947 
Q 1338 3394 1891 3394 
Q 2197 3394 2470 3270 
Q 2744 3147 2920 2923 
Q 3097 2700 3197 2384 
Q 3297 2069 3297 1709 
Q 3297 856 2875 390 
Q 2453 -75 1863 -75 
Q 1275 -75 941 416 
L 941 0 
z
M 934 1684 
Q 934 1088 1097 822 
Q 1363 388 1816 388 
Q 2184 388 2453 708 
Q 2722 1028 2722 1663 
Q 2722 2313 2464 2622 
Q 2206 2931 1841 2931 
Q 1472 2931 1203 2611 
Q 934 2291 934 1684 
z
" transform="scale(0.015625)"/>
        <path id="ArialMT-65" d="M 2694 1069 
L 3275 997 
Q 3138 488 2766 206 
Q 2394 -75 1816 -75 
Q 1088 -75 661 373 
Q 234 822 234 1631 
Q 234 2469 665 2931 
Q 1097 3394 1784 3394 
Q 2450 3394 2872 2941 
Q 3294 2488 3294 1666 
Q 3294 1616 3291 1516 
L 816 1516 
Q 847 969 1125 678 
Q 1403 388 1819 388 
Q 2128 388 2347 550 
Q 2566 713 2694 1069 
z
M 847 1978 
L 2700 1978 
Q 2663 2397 2488 2606 
Q 2219 2931 1791 2931 
Q 1403 2931 1139 2672 
Q 875 2413 847 1978 
z
" transform="scale(0.015625)"/>
        <path id="ArialMT-6e" d="M 422 0 
L 422 3319 
L 928 3319 
L 928 2847 
Q 1294 3394 1984 3394 
Q 2284 3394 2536 3286 
Q 2788 3178 2913 3003 
Q 3038 2828 3088 2588 
Q 3119 2431 3119 2041 
L 3119 0 
L 2556 0 
L 2556 2019 
Q 2556 2363 2490 2533 
Q 2425 2703 2258 2804 
Q 2091 2906 1866 2906 
Q 1506 2906 1245 2678 
Q 984 2450 984 1813 
L 984 0 
L 422 0 
z
" transform="scale(0.015625)"/>
        <path id="ArialMT-7a" d="M 125 0 
L 125 456 
L 2238 2881 
Q 1878 2863 1603 2863 
L 250 2863 
L 250 3319 
L 2963 3319 
L 2963 2947 
L 1166 841 
L 819 456 
Q 1197 484 1528 484 
L 3063 484 
L 3063 0 
L 125 0 
z
" transform="scale(0.015625)"/>
       </defs>
       <use xlink:href="#ArialMT-62"/>
       <use xlink:href="#ArialMT-65" x="55.615234"/>
       <use xlink:href="#ArialMT-6e" x="111.230469"/>
       <use xlink:href="#ArialMT-7a" x="166.845703"/>
       <use xlink:href="#ArialMT-65" x="216.845703"/>
       <use xlink:href="#ArialMT-6e" x="272.460938"/>
       <use xlink:href="#ArialMT-65" x="328.076172"/>
      </g>
     </g>
    </g>
    <g id="xtick_2">
     <g id="line2d_2">
      <g>
       <use xlink:href="#m54284d9f54" x="62.408304" y="209.652597" style="stroke: #000000; stroke-width: 0.8"/>
      </g>
     </g>
     <g id="text_2">
      <!-- C O -->
      <g transform="translate(54.72128 226.350401) rotate(-45) scale(0.055 -0.055)">
       <defs>
        <path id="ArialMT-43" d="M 3763 1606 
L 4369 1453 
Q 4178 706 3683 314 
Q 3188 -78 2472 -78 
Q 1731 -78 1267 223 
Q 803 525 561 1097 
Q 319 1669 319 2325 
Q 319 3041 592 3573 
Q 866 4106 1370 4382 
Q 1875 4659 2481 4659 
Q 3169 4659 3637 4309 
Q 4106 3959 4291 3325 
L 3694 3184 
Q 3534 3684 3231 3912 
Q 2928 4141 2469 4141 
Q 1941 4141 1586 3887 
Q 1231 3634 1087 3207 
Q 944 2781 944 2328 
Q 944 1744 1114 1308 
Q 1284 872 1643 656 
Q 2003 441 2422 441 
Q 2931 441 3284 734 
Q 3638 1028 3763 1606 
z
" transform="scale(0.015625)"/>
        <path id="ArialMT-20" transform="scale(0.015625)"/>
        <path id="ArialMT-4f" d="M 309 2231 
Q 309 3372 921 4017 
Q 1534 4663 2503 4663 
Q 3138 4663 3647 4359 
Q 4156 4056 4423 3514 
Q 4691 2972 4691 2284 
Q 4691 1588 4409 1038 
Q 4128 488 3612 205 
Q 3097 -78 2500 -78 
Q 1853 -78 1343 234 
Q 834 547 571 1087 
Q 309 1628 309 2231 
z
M 934 2222 
Q 934 1394 1379 917 
Q 1825 441 2497 441 
Q 3181 441 3623 922 
Q 4066 1403 4066 2288 
Q 4066 2847 3877 3264 
Q 3688 3681 3323 3911 
Q 2959 4141 2506 4141 
Q 1863 4141 1398 3698 
Q 934 3256 934 2222 
z
" transform="scale(0.015625)"/>
       </defs>
       <use xlink:href="#ArialMT-43"/>
       <use xlink:href="#ArialMT-20" x="72.216797"/>
       <use xlink:href="#ArialMT-4f" x="100"/>
      </g>
     </g>
    </g>
    <g id="xtick_3">
     <g id="line2d_3">
      <g>
       <use xlink:href="#m54284d9f54" x="75.743222" y="209.652597" style="stroke: #000000; stroke-width: 0.8"/>
      </g>
     </g>
     <g id="text_3">
      <!-- C O noCOO -->
      <g transform="translate(53.791755 240.614844) rotate(-45) scale(0.055 -0.055)">
       <defs>
        <path id="ArialMT-6f" d="M 213 1659 
Q 213 2581 725 3025 
Q 1153 3394 1769 3394 
Q 2453 3394 2887 2945 
Q 3322 2497 3322 1706 
Q 3322 1066 3130 698 
Q 2938 331 2570 128 
Q 2203 -75 1769 -75 
Q 1072 -75 642 372 
Q 213 819 213 1659 
z
M 791 1659 
Q 791 1022 1069 705 
Q 1347 388 1769 388 
Q 2188 388 2466 706 
Q 2744 1025 2744 1678 
Q 2744 2294 2464 2611 
Q 2184 2928 1769 2928 
Q 1347 2928 1069 2612 
Q 791 2297 791 1659 
z
" transform="scale(0.015625)"/>
       </defs>
       <use xlink:href="#ArialMT-43"/>
       <use xlink:href="#ArialMT-20" x="72.216797"/>
       <use xlink:href="#ArialMT-4f" x="100"/>
       <use xlink:href="#ArialMT-20" x="177.783203"/>
       <use xlink:href="#ArialMT-6e" x="205.566406"/>
       <use xlink:href="#ArialMT-6f" x="261.181641"/>
       <use xlink:href="#ArialMT-43" x="316.796875"/>
       <use xlink:href="#ArialMT-4f" x="389.013672"/>
       <use xlink:href="#ArialMT-4f" x="466.796875"/>
      </g>
     </g>
    </g>
    <g id="xtick_4">
     <g id="line2d_4">
      <g>
       <use xlink:href="#m54284d9f54" x="89.07814" y="209.652597" style="stroke: #000000; stroke-width: 0.8"/>
      </g>
     </g>
     <g id="text_4">
      <!-- ether -->
      <g transform="translate(79.441711 228.299806) rotate(-45) scale(0.055 -0.055)">
       <defs>
        <path id="ArialMT-74" d="M 1650 503 
L 1731 6 
Q 1494 -44 1306 -44 
Q 1000 -44 831 53 
Q 663 150 594 308 
Q 525 466 525 972 
L 525 2881 
L 113 2881 
L 113 3319 
L 525 3319 
L 525 4141 
L 1084 4478 
L 1084 3319 
L 1650 3319 
L 1650 2881 
L 1084 2881 
L 1084 941 
Q 1084 700 1114 631 
Q 1144 563 1211 522 
Q 1278 481 1403 481 
Q 1497 481 1650 503 
z
" transform="scale(0.015625)"/>
        <path id="ArialMT-68" d="M 422 0 
L 422 4581 
L 984 4581 
L 984 2938 
Q 1378 3394 1978 3394 
Q 2347 3394 2619 3248 
Q 2891 3103 3008 2847 
Q 3125 2591 3125 2103 
L 3125 0 
L 2563 0 
L 2563 2103 
Q 2563 2525 2380 2717 
Q 2197 2909 1863 2909 
Q 1613 2909 1392 2779 
Q 1172 2650 1078 2428 
Q 984 2206 984 1816 
L 984 0 
L 422 0 
z
" transform="scale(0.015625)"/>
        <path id="ArialMT-72" d="M 416 0 
L 416 3319 
L 922 3319 
L 922 2816 
Q 1116 3169 1280 3281 
Q 1444 3394 1641 3394 
Q 1925 3394 2219 3213 
L 2025 2691 
Q 1819 2813 1613 2813 
Q 1428 2813 1281 2702 
Q 1134 2591 1072 2394 
Q 978 2094 978 1738 
L 978 0 
L 416 0 
z
" transform="scale(0.015625)"/>
       </defs>
       <use xlink:href="#ArialMT-65"/>
       <use xlink:href="#ArialMT-74" x="55.615234"/>
       <use xlink:href="#ArialMT-68" x="83.398438"/>
       <use xlink:href="#ArialMT-65" x="139.013672"/>
       <use xlink:href="#ArialMT-72" x="194.628906"/>
      </g>
     </g>
    </g>
    <g id="xtick_5">
     <g id="line2d_5">
      <g>
       <use xlink:href="#m54284d9f54" x="102.413058" y="209.652597" style="stroke: #000000; stroke-width: 0.8"/>
      </g>
     </g>
     <g id="text_5">
      <!-- unbrch alkane -->
      <g transform="translate(77.20995 243.866486) rotate(-45) scale(0.055 -0.055)">
       <defs>
        <path id="ArialMT-75" d="M 2597 0 
L 2597 488 
Q 2209 -75 1544 -75 
Q 1250 -75 995 37 
Q 741 150 617 320 
Q 494 491 444 738 
Q 409 903 409 1263 
L 409 3319 
L 972 3319 
L 972 1478 
Q 972 1038 1006 884 
Q 1059 663 1231 536 
Q 1403 409 1656 409 
Q 1909 409 2131 539 
Q 2353 669 2445 892 
Q 2538 1116 2538 1541 
L 2538 3319 
L 3100 3319 
L 3100 0 
L 2597 0 
z
" transform="scale(0.015625)"/>
        <path id="ArialMT-63" d="M 2588 1216 
L 3141 1144 
Q 3050 572 2676 248 
Q 2303 -75 1759 -75 
Q 1078 -75 664 370 
Q 250 816 250 1647 
Q 250 2184 428 2587 
Q 606 2991 970 3192 
Q 1334 3394 1763 3394 
Q 2303 3394 2647 3120 
Q 2991 2847 3088 2344 
L 2541 2259 
Q 2463 2594 2264 2762 
Q 2066 2931 1784 2931 
Q 1359 2931 1093 2626 
Q 828 2322 828 1663 
Q 828 994 1084 691 
Q 1341 388 1753 388 
Q 2084 388 2306 591 
Q 2528 794 2588 1216 
z
" transform="scale(0.015625)"/>
        <path id="ArialMT-61" d="M 2588 409 
Q 2275 144 1986 34 
Q 1697 -75 1366 -75 
Q 819 -75 525 192 
Q 231 459 231 875 
Q 231 1119 342 1320 
Q 453 1522 633 1644 
Q 813 1766 1038 1828 
Q 1203 1872 1538 1913 
Q 2219 1994 2541 2106 
Q 2544 2222 2544 2253 
Q 2544 2597 2384 2738 
Q 2169 2928 1744 2928 
Q 1347 2928 1158 2789 
Q 969 2650 878 2297 
L 328 2372 
Q 403 2725 575 2942 
Q 747 3159 1072 3276 
Q 1397 3394 1825 3394 
Q 2250 3394 2515 3294 
Q 2781 3194 2906 3042 
Q 3031 2891 3081 2659 
Q 3109 2516 3109 2141 
L 3109 1391 
Q 3109 606 3145 398 
Q 3181 191 3288 0 
L 2700 0 
Q 2613 175 2588 409 
z
M 2541 1666 
Q 2234 1541 1622 1453 
Q 1275 1403 1131 1340 
Q 988 1278 909 1158 
Q 831 1038 831 891 
Q 831 666 1001 516 
Q 1172 366 1500 366 
Q 1825 366 2078 508 
Q 2331 650 2450 897 
Q 2541 1088 2541 1459 
L 2541 1666 
z
" transform="scale(0.015625)"/>
        <path id="ArialMT-6c" d="M 409 0 
L 409 4581 
L 972 4581 
L 972 0 
L 409 0 
z
" transform="scale(0.015625)"/>
        <path id="ArialMT-6b" d="M 425 0 
L 425 4581 
L 988 4581 
L 988 1969 
L 2319 3319 
L 3047 3319 
L 1778 2088 
L 3175 0 
L 2481 0 
L 1384 1697 
L 988 1316 
L 988 0 
L 425 0 
z
" transform="scale(0.015625)"/>
       </defs>
       <use xlink:href="#ArialMT-75"/>
       <use xlink:href="#ArialMT-6e" x="55.615234"/>
       <use xlink:href="#ArialMT-62" x="111.230469"/>
       <use xlink:href="#ArialMT-72" x="166.845703"/>
       <use xlink:href="#ArialMT-63" x="200.146484"/>
       <use xlink:href="#ArialMT-68" x="250.146484"/>
       <use xlink:href="#ArialMT-20" x="305.761719"/>
       <use xlink:href="#ArialMT-61" x="333.544922"/>
       <use xlink:href="#ArialMT-6c" x="389.160156"/>
       <use xlink:href="#ArialMT-6b" x="411.376953"/>
       <use xlink:href="#ArialMT-61" x="461.376953"/>
       <use xlink:href="#ArialMT-6e" x="516.992188"/>
       <use xlink:href="#ArialMT-65" x="572.607422"/>
      </g>
     </g>
    </g>
    <g id="xtick_6">
     <g id="line2d_6">
      <g>
       <use xlink:href="#m54284d9f54" x="115.747976" y="209.652597" style="stroke: #000000; stroke-width: 0.8"/>
      </g>
     </g>
     <g id="text_6">
      <!-- ester -->
      <g transform="translate(106.329701 228.081653) rotate(-45) scale(0.055 -0.055)">
       <defs>
        <path id="ArialMT-73" d="M 197 991 
L 753 1078 
Q 800 744 1014 566 
Q 1228 388 1613 388 
Q 2000 388 2187 545 
Q 2375 703 2375 916 
Q 2375 1106 2209 1216 
Q 2094 1291 1634 1406 
Q 1016 1563 777 1677 
Q 538 1791 414 1992 
Q 291 2194 291 2438 
Q 291 2659 392 2848 
Q 494 3038 669 3163 
Q 800 3259 1026 3326 
Q 1253 3394 1513 3394 
Q 1903 3394 2198 3281 
Q 2494 3169 2634 2976 
Q 2775 2784 2828 2463 
L 2278 2388 
Q 2241 2644 2061 2787 
Q 1881 2931 1553 2931 
Q 1166 2931 1000 2803 
Q 834 2675 834 2503 
Q 834 2394 903 2306 
Q 972 2216 1119 2156 
Q 1203 2125 1616 2013 
Q 2213 1853 2448 1751 
Q 2684 1650 2818 1456 
Q 2953 1263 2953 975 
Q 2953 694 2789 445 
Q 2625 197 2315 61 
Q 2006 -75 1616 -75 
Q 969 -75 630 194 
Q 291 463 197 991 
z
" transform="scale(0.015625)"/>
       </defs>
       <use xlink:href="#ArialMT-65"/>
       <use xlink:href="#ArialMT-73" x="55.615234"/>
       <use xlink:href="#ArialMT-74" x="105.615234"/>
       <use xlink:href="#ArialMT-65" x="133.398438"/>
       <use xlink:href="#ArialMT-72" x="189.013672"/>
      </g>
     </g>
    </g>
    <g id="xtick_7">
     <g id="line2d_7">
      <g>
       <use xlink:href="#m54284d9f54" x="129.082894" y="209.652597" style="stroke: #000000; stroke-width: 0.8"/>
      </g>
     </g>
     <g id="text_7">
      <!-- halogen -->
      <g transform="translate(114.424074 233.276623) rotate(-45) scale(0.055 -0.055)">
       <defs>
        <path id="ArialMT-67" d="M 319 -275 
L 866 -356 
Q 900 -609 1056 -725 
Q 1266 -881 1628 -881 
Q 2019 -881 2231 -725 
Q 2444 -569 2519 -288 
Q 2563 -116 2559 434 
Q 2191 0 1641 0 
Q 956 0 581 494 
Q 206 988 206 1678 
Q 206 2153 378 2554 
Q 550 2956 876 3175 
Q 1203 3394 1644 3394 
Q 2231 3394 2613 2919 
L 2613 3319 
L 3131 3319 
L 3131 450 
Q 3131 -325 2973 -648 
Q 2816 -972 2473 -1159 
Q 2131 -1347 1631 -1347 
Q 1038 -1347 672 -1080 
Q 306 -813 319 -275 
z
M 784 1719 
Q 784 1066 1043 766 
Q 1303 466 1694 466 
Q 2081 466 2343 764 
Q 2606 1063 2606 1700 
Q 2606 2309 2336 2618 
Q 2066 2928 1684 2928 
Q 1309 2928 1046 2623 
Q 784 2319 784 1719 
z
" transform="scale(0.015625)"/>
       </defs>
       <use xlink:href="#ArialMT-68"/>
       <use xlink:href="#ArialMT-61" x="55.615234"/>
       <use xlink:href="#ArialMT-6c" x="111.230469"/>
       <use xlink:href="#ArialMT-6f" x="133.447266"/>
       <use xlink:href="#ArialMT-67" x="189.0625"/>
       <use xlink:href="#ArialMT-65" x="244.677734"/>
       <use xlink:href="#ArialMT-6e" x="300.292969"/>
      </g>
     </g>
    </g>
    <g id="xtick_8">
     <g id="line2d_8">
      <g>
       <use xlink:href="#m54284d9f54" x="142.417812" y="209.652597" style="stroke: #000000; stroke-width: 0.8"/>
      </g>
     </g>
     <g id="text_8">
      <!-- allylic oxid -->
      <g transform="translate(123.876589 237.159026) rotate(-45) scale(0.055 -0.055)">
       <defs>
        <path id="ArialMT-79" d="M 397 -1278 
L 334 -750 
Q 519 -800 656 -800 
Q 844 -800 956 -737 
Q 1069 -675 1141 -563 
Q 1194 -478 1313 -144 
Q 1328 -97 1363 -6 
L 103 3319 
L 709 3319 
L 1400 1397 
Q 1534 1031 1641 628 
Q 1738 1016 1872 1384 
L 2581 3319 
L 3144 3319 
L 1881 -56 
Q 1678 -603 1566 -809 
Q 1416 -1088 1222 -1217 
Q 1028 -1347 759 -1347 
Q 597 -1347 397 -1278 
z
" transform="scale(0.015625)"/>
        <path id="ArialMT-69" d="M 425 3934 
L 425 4581 
L 988 4581 
L 988 3934 
L 425 3934 
z
M 425 0 
L 425 3319 
L 988 3319 
L 988 0 
L 425 0 
z
" transform="scale(0.015625)"/>
        <path id="ArialMT-78" d="M 47 0 
L 1259 1725 
L 138 3319 
L 841 3319 
L 1350 2541 
Q 1494 2319 1581 2169 
Q 1719 2375 1834 2534 
L 2394 3319 
L 3066 3319 
L 1919 1756 
L 3153 0 
L 2463 0 
L 1781 1031 
L 1600 1309 
L 728 0 
L 47 0 
z
" transform="scale(0.015625)"/>
        <path id="ArialMT-64" d="M 2575 0 
L 2575 419 
Q 2259 -75 1647 -75 
Q 1250 -75 917 144 
Q 584 363 401 755 
Q 219 1147 219 1656 
Q 219 2153 384 2558 
Q 550 2963 881 3178 
Q 1213 3394 1622 3394 
Q 1922 3394 2156 3267 
Q 2391 3141 2538 2938 
L 2538 4581 
L 3097 4581 
L 3097 0 
L 2575 0 
z
M 797 1656 
Q 797 1019 1065 703 
Q 1334 388 1700 388 
Q 2069 388 2326 689 
Q 2584 991 2584 1609 
Q 2584 2291 2321 2609 
Q 2059 2928 1675 2928 
Q 1300 2928 1048 2622 
Q 797 2316 797 1656 
z
" transform="scale(0.015625)"/>
       </defs>
       <use xlink:href="#ArialMT-61"/>
       <use xlink:href="#ArialMT-6c" x="55.615234"/>
       <use xlink:href="#ArialMT-6c" x="77.832031"/>
       <use xlink:href="#ArialMT-79" x="100.048828"/>
       <use xlink:href="#ArialMT-6c" x="150.048828"/>
       <use xlink:href="#ArialMT-69" x="172.265625"/>
       <use xlink:href="#ArialMT-63" x="194.482422"/>
       <use xlink:href="#ArialMT-20" x="244.482422"/>
       <use xlink:href="#ArialMT-6f" x="272.265625"/>
       <use xlink:href="#ArialMT-78" x="327.880859"/>
       <use xlink:href="#ArialMT-69" x="377.880859"/>
       <use xlink:href="#ArialMT-64" x="400.097656"/>
      </g>
     </g>
    </g>
    <g id="xtick_9">
     <g id="line2d_9">
      <g>
       <use xlink:href="#m54284d9f54" x="155.752731" y="209.652597" style="stroke: #000000; stroke-width: 0.8"/>
      </g>
     </g>
     <g id="text_9">
      <!-- alkyl halide -->
      <g transform="translate(135.694763 238.67577) rotate(-45) scale(0.055 -0.055)">
       <use xlink:href="#ArialMT-61"/>
       <use xlink:href="#ArialMT-6c" x="55.615234"/>
       <use xlink:href="#ArialMT-6b" x="77.832031"/>
       <use xlink:href="#ArialMT-79" x="127.832031"/>
       <use xlink:href="#ArialMT-6c" x="177.832031"/>
       <use xlink:href="#ArialMT-20" x="200.048828"/>
       <use xlink:href="#ArialMT-68" x="227.832031"/>
       <use xlink:href="#ArialMT-61" x="283.447266"/>
       <use xlink:href="#ArialMT-6c" x="339.0625"/>
       <use xlink:href="#ArialMT-69" x="361.279297"/>
       <use xlink:href="#ArialMT-64" x="383.496094"/>
       <use xlink:href="#ArialMT-65" x="439.111328"/>
      </g>
     </g>
    </g>
    <g id="xtick_10">
     <g id="line2d_10">
      <g>
       <use xlink:href="#m54284d9f54" x="169.087649" y="209.652597" style="stroke: #000000; stroke-width: 0.8"/>
      </g>
     </g>
     <g id="text_10">
      <!-- Al OH -->
      <g transform="translate(157.942375 229.808651) rotate(-45) scale(0.055 -0.055)">
       <defs>
        <path id="ArialMT-41" d="M -9 0 
L 1750 4581 
L 2403 4581 
L 4278 0 
L 3588 0 
L 3053 1388 
L 1138 1388 
L 634 0 
L -9 0 
z
M 1313 1881 
L 2866 1881 
L 2388 3150 
Q 2169 3728 2063 4100 
Q 1975 3659 1816 3225 
L 1313 1881 
z
" transform="scale(0.015625)"/>
        <path id="ArialMT-48" d="M 513 0 
L 513 4581 
L 1119 4581 
L 1119 2700 
L 3500 2700 
L 3500 4581 
L 4106 4581 
L 4106 0 
L 3500 0 
L 3500 2159 
L 1119 2159 
L 1119 0 
L 513 0 
z
" transform="scale(0.015625)"/>
       </defs>
       <use xlink:href="#ArialMT-41"/>
       <use xlink:href="#ArialMT-6c" x="66.699219"/>
       <use xlink:href="#ArialMT-20" x="88.916016"/>
       <use xlink:href="#ArialMT-4f" x="116.699219"/>
       <use xlink:href="#ArialMT-48" x="194.482422"/>
      </g>
     </g>
    </g>
    <g id="xtick_11">
     <g id="line2d_11">
      <g>
       <use xlink:href="#m54284d9f54" x="182.422567" y="209.652597" style="stroke: #000000; stroke-width: 0.8"/>
      </g>
     </g>
     <g id="text_11">
      <!-- Al OH noTert -->
      <g transform="translate(159.390663 241.695281) rotate(-45) scale(0.055 -0.055)">
       <defs>
        <path id="ArialMT-54" d="M 1659 0 
L 1659 4041 
L 150 4041 
L 150 4581 
L 3781 4581 
L 3781 4041 
L 2266 4041 
L 2266 0 
L 1659 0 
z
" transform="scale(0.015625)"/>
       </defs>
       <use xlink:href="#ArialMT-41"/>
       <use xlink:href="#ArialMT-6c" x="66.699219"/>
       <use xlink:href="#ArialMT-20" x="88.916016"/>
       <use xlink:href="#ArialMT-4f" x="116.699219"/>
       <use xlink:href="#ArialMT-48" x="194.482422"/>
       <use xlink:href="#ArialMT-20" x="266.699219"/>
       <use xlink:href="#ArialMT-6e" x="294.482422"/>
       <use xlink:href="#ArialMT-6f" x="350.097656"/>
       <use xlink:href="#ArialMT-54" x="405.712891"/>
       <use xlink:href="#ArialMT-65" x="455.671875"/>
       <use xlink:href="#ArialMT-72" x="511.287109"/>
       <use xlink:href="#ArialMT-74" x="544.587891"/>
      </g>
     </g>
    </g>
    <g id="xtick_12">
     <g id="line2d_12">
      <g>
       <use xlink:href="#m54284d9f54" x="195.757485" y="209.652597" style="stroke: #000000; stroke-width: 0.8"/>
      </g>
     </g>
     <g id="text_12">
      <!-- aryl methyl -->
      <g transform="translate(176.138255 238.237032) rotate(-45) scale(0.055 -0.055)">
       <defs>
        <path id="ArialMT-6d" d="M 422 0 
L 422 3319 
L 925 3319 
L 925 2853 
Q 1081 3097 1340 3245 
Q 1600 3394 1931 3394 
Q 2300 3394 2536 3241 
Q 2772 3088 2869 2813 
Q 3263 3394 3894 3394 
Q 4388 3394 4653 3120 
Q 4919 2847 4919 2278 
L 4919 0 
L 4359 0 
L 4359 2091 
Q 4359 2428 4304 2576 
Q 4250 2725 4106 2815 
Q 3963 2906 3769 2906 
Q 3419 2906 3187 2673 
Q 2956 2441 2956 1928 
L 2956 0 
L 2394 0 
L 2394 2156 
Q 2394 2531 2256 2718 
Q 2119 2906 1806 2906 
Q 1569 2906 1367 2781 
Q 1166 2656 1075 2415 
Q 984 2175 984 1722 
L 984 0 
L 422 0 
z
" transform="scale(0.015625)"/>
       </defs>
       <use xlink:href="#ArialMT-61"/>
       <use xlink:href="#ArialMT-72" x="55.615234"/>
       <use xlink:href="#ArialMT-79" x="88.916016"/>
       <use xlink:href="#ArialMT-6c" x="138.916016"/>
       <use xlink:href="#ArialMT-20" x="161.132812"/>
       <use xlink:href="#ArialMT-6d" x="188.916016"/>
       <use xlink:href="#ArialMT-65" x="272.216797"/>
       <use xlink:href="#ArialMT-74" x="327.832031"/>
       <use xlink:href="#ArialMT-68" x="355.615234"/>
       <use xlink:href="#ArialMT-79" x="411.230469"/>
       <use xlink:href="#ArialMT-6c" x="461.230469"/>
      </g>
     </g>
    </g>
    <g id="xtick_13">
     <g id="line2d_13">
      <g>
       <use xlink:href="#m54284d9f54" x="209.092403" y="209.652597" style="stroke: #000000; stroke-width: 0.8"/>
      </g>
     </g>
     <g id="text_13">
      <!-- ketone -->
      <g transform="translate(196.643677 231.112102) rotate(-45) scale(0.055 -0.055)">
       <use xlink:href="#ArialMT-6b"/>
       <use xlink:href="#ArialMT-65" x="50"/>
       <use xlink:href="#ArialMT-74" x="105.615234"/>
       <use xlink:href="#ArialMT-6f" x="133.398438"/>
       <use xlink:href="#ArialMT-6e" x="189.013672"/>
       <use xlink:href="#ArialMT-65" x="244.628906"/>
      </g>
     </g>
    </g>
    <g id="xtick_14">
     <g id="line2d_14">
      <g>
       <use xlink:href="#m54284d9f54" x="222.427321" y="209.652597" style="stroke: #000000; stroke-width: 0.8"/>
      </g>
     </g>
     <g id="text_14">
      <!-- ketone Topliss -->
      <g transform="translate(197.080802 244.009896) rotate(-45) scale(0.055 -0.055)">
       <defs>
        <path id="ArialMT-70" d="M 422 -1272 
L 422 3319 
L 934 3319 
L 934 2888 
Q 1116 3141 1344 3267 
Q 1572 3394 1897 3394 
Q 2322 3394 2647 3175 
Q 2972 2956 3137 2557 
Q 3303 2159 3303 1684 
Q 3303 1175 3120 767 
Q 2938 359 2589 142 
Q 2241 -75 1856 -75 
Q 1575 -75 1351 44 
Q 1128 163 984 344 
L 984 -1272 
L 422 -1272 
z
M 931 1641 
Q 931 1000 1190 694 
Q 1450 388 1819 388 
Q 2194 388 2461 705 
Q 2728 1022 2728 1688 
Q 2728 2322 2467 2637 
Q 2206 2953 1844 2953 
Q 1484 2953 1207 2617 
Q 931 2281 931 1641 
z
" transform="scale(0.015625)"/>
       </defs>
       <use xlink:href="#ArialMT-6b"/>
       <use xlink:href="#ArialMT-65" x="50"/>
       <use xlink:href="#ArialMT-74" x="105.615234"/>
       <use xlink:href="#ArialMT-6f" x="133.398438"/>
       <use xlink:href="#ArialMT-6e" x="189.013672"/>
       <use xlink:href="#ArialMT-65" x="244.628906"/>
       <use xlink:href="#ArialMT-20" x="300.244141"/>
       <use xlink:href="#ArialMT-54" x="326.277344"/>
       <use xlink:href="#ArialMT-6f" x="376.236328"/>
       <use xlink:href="#ArialMT-70" x="431.851562"/>
       <use xlink:href="#ArialMT-6c" x="487.466797"/>
       <use xlink:href="#ArialMT-69" x="509.683594"/>
       <use xlink:href="#ArialMT-73" x="531.900391"/>
       <use xlink:href="#ArialMT-73" x="581.900391"/>
      </g>
     </g>
    </g>
    <g id="xtick_15">
     <g id="line2d_15">
      <g>
       <use xlink:href="#m54284d9f54" x="235.762239" y="209.652597" style="stroke: #000000; stroke-width: 0.8"/>
      </g>
     </g>
     <g id="text_15">
      <!-- methoxy -->
      <g transform="translate(220.246604 234.133437) rotate(-45) scale(0.055 -0.055)">
       <use xlink:href="#ArialMT-6d"/>
       <use xlink:href="#ArialMT-65" x="83.300781"/>
       <use xlink:href="#ArialMT-74" x="138.916016"/>
       <use xlink:href="#ArialMT-68" x="166.699219"/>
       <use xlink:href="#ArialMT-6f" x="222.314453"/>
       <use xlink:href="#ArialMT-78" x="277.929688"/>
       <use xlink:href="#ArialMT-79" x="327.929688"/>
      </g>
     </g>
    </g>
   </g>
   <g id="matplotlib.axis_2">
    <g id="ytick_1">
     <g id="line2d_16">
      <defs>
       <path id="m880d7c7125" d="M 0 0 
L -3.5 0 
" style="stroke: #000000; stroke-width: 0.8"/>
      </defs>
      <g>
       <use xlink:href="#m880d7c7125" x="34.605" y="209.652597" style="stroke: #000000; stroke-width: 0.8"/>
      </g>
     </g>
     <g id="text_16">
      <!-- 0 -->
      <g transform="translate(23.15625 212.515722) scale(0.08 -0.08)">
       <defs>
        <path id="ArialMT-30" d="M 266 2259 
Q 266 3072 433 3567 
Q 600 4063 929 4331 
Q 1259 4600 1759 4600 
Q 2128 4600 2406 4451 
Q 2684 4303 2865 4023 
Q 3047 3744 3150 3342 
Q 3253 2941 3253 2259 
Q 3253 1453 3087 958 
Q 2922 463 2592 192 
Q 2263 -78 1759 -78 
Q 1097 -78 719 397 
Q 266 969 266 2259 
z
M 844 2259 
Q 844 1131 1108 757 
Q 1372 384 1759 384 
Q 2147 384 2411 759 
Q 2675 1134 2675 2259 
Q 2675 3391 2411 3762 
Q 2147 4134 1753 4134 
Q 1366 4134 1134 3806 
Q 844 3388 844 2259 
z
" transform="scale(0.015625)"/>
       </defs>
       <use xlink:href="#ArialMT-30"/>
      </g>
     </g>
    </g>
    <g id="ytick_2">
     <g id="line2d_17">
      <g>
       <use xlink:href="#m880d7c7125" x="34.605" y="175.777264" style="stroke: #000000; stroke-width: 0.8"/>
      </g>
     </g>
     <g id="text_17">
      <!-- 5 -->
      <g transform="translate(23.15625 178.640389) scale(0.08 -0.08)">
       <defs>
        <path id="ArialMT-35" d="M 266 1200 
L 856 1250 
Q 922 819 1161 601 
Q 1400 384 1738 384 
Q 2144 384 2425 690 
Q 2706 997 2706 1503 
Q 2706 1984 2436 2262 
Q 2166 2541 1728 2541 
Q 1456 2541 1237 2417 
Q 1019 2294 894 2097 
L 366 2166 
L 809 4519 
L 3088 4519 
L 3088 3981 
L 1259 3981 
L 1013 2750 
Q 1425 3038 1878 3038 
Q 2478 3038 2890 2622 
Q 3303 2206 3303 1553 
Q 3303 931 2941 478 
Q 2500 -78 1738 -78 
Q 1113 -78 717 272 
Q 322 622 266 1200 
z
" transform="scale(0.015625)"/>
       </defs>
       <use xlink:href="#ArialMT-35"/>
      </g>
     </g>
    </g>
    <g id="ytick_3">
     <g id="line2d_18">
      <g>
       <use xlink:href="#m880d7c7125" x="34.605" y="141.90193" style="stroke: #000000; stroke-width: 0.8"/>
      </g>
     </g>
     <g id="text_18">
      <!-- 10 -->
      <g transform="translate(18.7075 144.765055) scale(0.08 -0.08)">
       <defs>
        <path id="ArialMT-31" d="M 2384 0 
L 1822 0 
L 1822 3584 
Q 1619 3391 1289 3197 
Q 959 3003 697 2906 
L 697 3450 
Q 1169 3672 1522 3987 
Q 1875 4303 2022 4600 
L 2384 4600 
L 2384 0 
z
" transform="scale(0.015625)"/>
       </defs>
       <use xlink:href="#ArialMT-31"/>
       <use xlink:href="#ArialMT-30" x="55.615234"/>
      </g>
     </g>
    </g>
    <g id="ytick_4">
     <g id="line2d_19">
      <g>
       <use xlink:href="#m880d7c7125" x="34.605" y="108.026597" style="stroke: #000000; stroke-width: 0.8"/>
      </g>
     </g>
     <g id="text_19">
      <!-- 15 -->
      <g transform="translate(18.7075 110.889722) scale(0.08 -0.08)">
       <use xlink:href="#ArialMT-31"/>
       <use xlink:href="#ArialMT-35" x="55.615234"/>
      </g>
     </g>
    </g>
    <g id="ytick_5">
     <g id="line2d_20">
      <g>
       <use xlink:href="#m880d7c7125" x="34.605" y="74.151263" style="stroke: #000000; stroke-width: 0.8"/>
      </g>
     </g>
     <g id="text_20">
      <!-- 20 -->
      <g transform="translate(18.7075 77.014388) scale(0.08 -0.08)">
       <defs>
        <path id="ArialMT-32" d="M 3222 541 
L 3222 0 
L 194 0 
Q 188 203 259 391 
Q 375 700 629 1000 
Q 884 1300 1366 1694 
Q 2113 2306 2375 2664 
Q 2638 3022 2638 3341 
Q 2638 3675 2398 3904 
Q 2159 4134 1775 4134 
Q 1369 4134 1125 3890 
Q 881 3647 878 3216 
L 300 3275 
Q 359 3922 746 4261 
Q 1134 4600 1788 4600 
Q 2447 4600 2831 4234 
Q 3216 3869 3216 3328 
Q 3216 3053 3103 2787 
Q 2991 2522 2730 2228 
Q 2469 1934 1863 1422 
Q 1356 997 1212 845 
Q 1069 694 975 541 
L 3222 541 
z
" transform="scale(0.015625)"/>
       </defs>
       <use xlink:href="#ArialMT-32"/>
       <use xlink:href="#ArialMT-30" x="55.615234"/>
      </g>
     </g>
    </g>
    <g id="ytick_6">
     <g id="line2d_21">
      <g>
       <use xlink:href="#m880d7c7125" x="34.605" y="40.27593" style="stroke: #000000; stroke-width: 0.8"/>
      </g>
     </g>
     <g id="text_21">
      <!-- 25 -->
      <g transform="translate(18.7075 43.139055) scale(0.08 -0.08)">
       <use xlink:href="#ArialMT-32"/>
       <use xlink:href="#ArialMT-35" x="55.615234"/>
      </g>
     </g>
    </g>
    <g id="text_22">
     <!-- Frequency (%) -->
     <g transform="translate(13.02375 140.566924) rotate(-90) scale(0.08 -0.08)">
      <defs>
       <path id="ArialMT-46" d="M 525 0 
L 525 4581 
L 3616 4581 
L 3616 4041 
L 1131 4041 
L 1131 2622 
L 3281 2622 
L 3281 2081 
L 1131 2081 
L 1131 0 
L 525 0 
z
" transform="scale(0.015625)"/>
       <path id="ArialMT-71" d="M 2538 -1272 
L 2538 353 
Q 2406 169 2170 47 
Q 1934 -75 1669 -75 
Q 1078 -75 651 397 
Q 225 869 225 1691 
Q 225 2191 398 2587 
Q 572 2984 901 3189 
Q 1231 3394 1625 3394 
Q 2241 3394 2594 2875 
L 2594 3319 
L 3100 3319 
L 3100 -1272 
L 2538 -1272 
z
M 803 1669 
Q 803 1028 1072 708 
Q 1341 388 1716 388 
Q 2075 388 2334 692 
Q 2594 997 2594 1619 
Q 2594 2281 2320 2615 
Q 2047 2950 1678 2950 
Q 1313 2950 1058 2639 
Q 803 2328 803 1669 
z
" transform="scale(0.015625)"/>
       <path id="ArialMT-28" d="M 1497 -1347 
Q 1031 -759 709 28 
Q 388 816 388 1659 
Q 388 2403 628 3084 
Q 909 3875 1497 4659 
L 1900 4659 
Q 1522 4009 1400 3731 
Q 1209 3300 1100 2831 
Q 966 2247 966 1656 
Q 966 153 1900 -1347 
L 1497 -1347 
z
" transform="scale(0.015625)"/>
       <path id="ArialMT-25" d="M 372 3481 
Q 372 3972 619 4315 
Q 866 4659 1334 4659 
Q 1766 4659 2048 4351 
Q 2331 4044 2331 3447 
Q 2331 2866 2045 2552 
Q 1759 2238 1341 2238 
Q 925 2238 648 2547 
Q 372 2856 372 3481 
z
M 1350 4272 
Q 1141 4272 1002 4090 
Q 863 3909 863 3425 
Q 863 2984 1003 2804 
Q 1144 2625 1350 2625 
Q 1563 2625 1702 2806 
Q 1841 2988 1841 3469 
Q 1841 3913 1700 4092 
Q 1559 4272 1350 4272 
z
M 1353 -169 
L 3859 4659 
L 4316 4659 
L 1819 -169 
L 1353 -169 
z
M 3334 1075 
Q 3334 1569 3581 1911 
Q 3828 2253 4300 2253 
Q 4731 2253 5014 1945 
Q 5297 1638 5297 1041 
Q 5297 459 5011 145 
Q 4725 -169 4303 -169 
Q 3888 -169 3611 142 
Q 3334 453 3334 1075 
z
M 4316 1866 
Q 4103 1866 3964 1684 
Q 3825 1503 3825 1019 
Q 3825 581 3965 400 
Q 4106 219 4313 219 
Q 4528 219 4667 400 
Q 4806 581 4806 1063 
Q 4806 1506 4665 1686 
Q 4525 1866 4316 1866 
z
" transform="scale(0.015625)"/>
       <path id="ArialMT-29" d="M 791 -1347 
L 388 -1347 
Q 1322 153 1322 1656 
Q 1322 2244 1188 2822 
Q 1081 3291 891 3722 
Q 769 4003 388 4659 
L 791 4659 
Q 1378 3875 1659 3084 
Q 1900 2403 1900 1659 
Q 1900 816 1576 28 
Q 1253 -759 791 -1347 
z
" transform="scale(0.015625)"/>
      </defs>
      <use xlink:href="#ArialMT-46"/>
      <use xlink:href="#ArialMT-72" x="61.083984"/>
      <use xlink:href="#ArialMT-65" x="94.384766"/>
      <use xlink:href="#ArialMT-71" x="150"/>
      <use xlink:href="#ArialMT-75" x="205.615234"/>
      <use xlink:href="#ArialMT-65" x="261.230469"/>
      <use xlink:href="#ArialMT-6e" x="316.845703"/>
      <use xlink:href="#ArialMT-63" x="372.460938"/>
      <use xlink:href="#ArialMT-79" x="422.460938"/>
      <use xlink:href="#ArialMT-20" x="472.460938"/>
      <use xlink:href="#ArialMT-28" x="500.244141"/>
      <use xlink:href="#ArialMT-25" x="533.544922"/>
      <use xlink:href="#ArialMT-29" x="622.460938"/>
     </g>
    </g>
   </g>
   <g id="patch_33">
    <path d="M 34.605 209.652597 
L 34.605 19.02375 
" style="fill: none; stroke: #000000; stroke-width: 0.8; stroke-linejoin: miter; stroke-linecap: square"/>
   </g>
   <g id="patch_34">
    <path d="M 34.605 209.652597 
L 250.230625 209.652597 
" style="fill: none; stroke: #000000; stroke-width: 0.8; stroke-linejoin: miter; stroke-linecap: square"/>
   </g>
   <g id="text_23">
    <!-- A  Functional group frequency -->
    <g transform="translate(34.605 13.02375) scale(0.08 -0.08)">
     <defs>
      <path id="Arial-BoldMT-41" d="M 4597 0 
L 3591 0 
L 3191 1041 
L 1359 1041 
L 981 0 
L 0 0 
L 1784 4581 
L 2763 4581 
L 4597 0 
z
M 2894 1813 
L 2263 3513 
L 1644 1813 
L 2894 1813 
z
" transform="scale(0.015625)"/>
      <path id="Arial-BoldMT-20" transform="scale(0.015625)"/>
      <path id="Arial-BoldMT-46" d="M 472 0 
L 472 4581 
L 3613 4581 
L 3613 3806 
L 1397 3806 
L 1397 2722 
L 3309 2722 
L 3309 1947 
L 1397 1947 
L 1397 0 
L 472 0 
z
" transform="scale(0.015625)"/>
      <path id="Arial-BoldMT-75" d="M 2644 0 
L 2644 497 
Q 2463 231 2167 78 
Q 1872 -75 1544 -75 
Q 1209 -75 943 72 
Q 678 219 559 484 
Q 441 750 441 1219 
L 441 3319 
L 1319 3319 
L 1319 1794 
Q 1319 1094 1367 936 
Q 1416 778 1544 686 
Q 1672 594 1869 594 
Q 2094 594 2272 717 
Q 2450 841 2515 1023 
Q 2581 1206 2581 1919 
L 2581 3319 
L 3459 3319 
L 3459 0 
L 2644 0 
z
" transform="scale(0.015625)"/>
      <path id="Arial-BoldMT-6e" d="M 3478 0 
L 2600 0 
L 2600 1694 
Q 2600 2231 2544 2389 
Q 2488 2547 2361 2634 
Q 2234 2722 2056 2722 
Q 1828 2722 1647 2597 
Q 1466 2472 1398 2265 
Q 1331 2059 1331 1503 
L 1331 0 
L 453 0 
L 453 3319 
L 1269 3319 
L 1269 2831 
Q 1703 3394 2363 3394 
Q 2653 3394 2893 3289 
Q 3134 3184 3257 3021 
Q 3381 2859 3429 2653 
Q 3478 2447 3478 2063 
L 3478 0 
z
" transform="scale(0.015625)"/>
      <path id="Arial-BoldMT-63" d="M 3353 2338 
L 2488 2181 
Q 2444 2441 2289 2572 
Q 2134 2703 1888 2703 
Q 1559 2703 1364 2476 
Q 1169 2250 1169 1719 
Q 1169 1128 1367 884 
Q 1566 641 1900 641 
Q 2150 641 2309 783 
Q 2469 925 2534 1272 
L 3397 1125 
Q 3263 531 2881 228 
Q 2500 -75 1859 -75 
Q 1131 -75 698 384 
Q 266 844 266 1656 
Q 266 2478 700 2936 
Q 1134 3394 1875 3394 
Q 2481 3394 2839 3133 
Q 3197 2872 3353 2338 
z
" transform="scale(0.015625)"/>
      <path id="Arial-BoldMT-74" d="M 1981 3319 
L 1981 2619 
L 1381 2619 
L 1381 1281 
Q 1381 875 1398 808 
Q 1416 741 1477 697 
Q 1538 653 1625 653 
Q 1747 653 1978 738 
L 2053 56 
Q 1747 -75 1359 -75 
Q 1122 -75 931 4 
Q 741 84 652 211 
Q 563 338 528 553 
Q 500 706 500 1172 
L 500 2619 
L 97 2619 
L 97 3319 
L 500 3319 
L 500 3978 
L 1381 4491 
L 1381 3319 
L 1981 3319 
z
" transform="scale(0.015625)"/>
      <path id="Arial-BoldMT-69" d="M 459 3769 
L 459 4581 
L 1338 4581 
L 1338 3769 
L 459 3769 
z
M 459 0 
L 459 3319 
L 1338 3319 
L 1338 0 
L 459 0 
z
" transform="scale(0.015625)"/>
      <path id="Arial-BoldMT-6f" d="M 256 1706 
Q 256 2144 472 2553 
Q 688 2963 1083 3178 
Q 1478 3394 1966 3394 
Q 2719 3394 3200 2905 
Q 3681 2416 3681 1669 
Q 3681 916 3195 420 
Q 2709 -75 1972 -75 
Q 1516 -75 1102 131 
Q 688 338 472 736 
Q 256 1134 256 1706 
z
M 1156 1659 
Q 1156 1166 1390 903 
Q 1625 641 1969 641 
Q 2313 641 2545 903 
Q 2778 1166 2778 1666 
Q 2778 2153 2545 2415 
Q 2313 2678 1969 2678 
Q 1625 2678 1390 2415 
Q 1156 2153 1156 1659 
z
" transform="scale(0.015625)"/>
      <path id="Arial-BoldMT-61" d="M 1116 2306 
L 319 2450 
Q 453 2931 781 3162 
Q 1109 3394 1756 3394 
Q 2344 3394 2631 3255 
Q 2919 3116 3036 2902 
Q 3153 2688 3153 2116 
L 3144 1091 
Q 3144 653 3186 445 
Q 3228 238 3344 0 
L 2475 0 
Q 2441 88 2391 259 
Q 2369 338 2359 363 
Q 2134 144 1878 34 
Q 1622 -75 1331 -75 
Q 819 -75 523 203 
Q 228 481 228 906 
Q 228 1188 362 1408 
Q 497 1628 739 1745 
Q 981 1863 1438 1950 
Q 2053 2066 2291 2166 
L 2291 2253 
Q 2291 2506 2166 2614 
Q 2041 2722 1694 2722 
Q 1459 2722 1328 2630 
Q 1197 2538 1116 2306 
z
M 2291 1594 
Q 2122 1538 1756 1459 
Q 1391 1381 1278 1306 
Q 1106 1184 1106 997 
Q 1106 813 1243 678 
Q 1381 544 1594 544 
Q 1831 544 2047 700 
Q 2206 819 2256 991 
Q 2291 1103 2291 1419 
L 2291 1594 
z
" transform="scale(0.015625)"/>
      <path id="Arial-BoldMT-6c" d="M 459 0 
L 459 4581 
L 1338 4581 
L 1338 0 
L 459 0 
z
" transform="scale(0.015625)"/>
      <path id="Arial-BoldMT-67" d="M 378 -219 
L 1381 -341 
Q 1406 -516 1497 -581 
Q 1622 -675 1891 -675 
Q 2234 -675 2406 -572 
Q 2522 -503 2581 -350 
Q 2622 -241 2622 53 
L 2622 538 
Q 2228 0 1628 0 
Q 959 0 569 566 
Q 263 1013 263 1678 
Q 263 2513 664 2953 
Q 1066 3394 1663 3394 
Q 2278 3394 2678 2853 
L 2678 3319 
L 3500 3319 
L 3500 341 
Q 3500 -247 3403 -537 
Q 3306 -828 3131 -993 
Q 2956 -1159 2664 -1253 
Q 2372 -1347 1925 -1347 
Q 1081 -1347 728 -1058 
Q 375 -769 375 -325 
Q 375 -281 378 -219 
z
M 1163 1728 
Q 1163 1200 1367 954 
Q 1572 709 1872 709 
Q 2194 709 2416 961 
Q 2638 1213 2638 1706 
Q 2638 2222 2425 2472 
Q 2213 2722 1888 2722 
Q 1572 2722 1367 2476 
Q 1163 2231 1163 1728 
z
" transform="scale(0.015625)"/>
      <path id="Arial-BoldMT-72" d="M 1300 0 
L 422 0 
L 422 3319 
L 1238 3319 
L 1238 2847 
Q 1447 3181 1614 3287 
Q 1781 3394 1994 3394 
Q 2294 3394 2572 3228 
L 2300 2463 
Q 2078 2606 1888 2606 
Q 1703 2606 1575 2504 
Q 1447 2403 1373 2137 
Q 1300 1872 1300 1025 
L 1300 0 
z
" transform="scale(0.015625)"/>
      <path id="Arial-BoldMT-70" d="M 434 3319 
L 1253 3319 
L 1253 2831 
Q 1413 3081 1684 3237 
Q 1956 3394 2288 3394 
Q 2866 3394 3269 2941 
Q 3672 2488 3672 1678 
Q 3672 847 3265 386 
Q 2859 -75 2281 -75 
Q 2006 -75 1782 34 
Q 1559 144 1313 409 
L 1313 -1263 
L 434 -1263 
L 434 3319 
z
M 1303 1716 
Q 1303 1156 1525 889 
Q 1747 622 2066 622 
Q 2372 622 2575 867 
Q 2778 1113 2778 1672 
Q 2778 2194 2568 2447 
Q 2359 2700 2050 2700 
Q 1728 2700 1515 2451 
Q 1303 2203 1303 1716 
z
" transform="scale(0.015625)"/>
      <path id="Arial-BoldMT-66" d="M 75 3319 
L 563 3319 
L 563 3569 
Q 563 3988 652 4194 
Q 741 4400 980 4529 
Q 1219 4659 1584 4659 
Q 1959 4659 2319 4547 
L 2200 3934 
Q 1991 3984 1797 3984 
Q 1606 3984 1523 3895 
Q 1441 3806 1441 3553 
L 1441 3319 
L 2097 3319 
L 2097 2628 
L 1441 2628 
L 1441 0 
L 563 0 
L 563 2628 
L 75 2628 
L 75 3319 
z
" transform="scale(0.015625)"/>
      <path id="Arial-BoldMT-65" d="M 2381 1056 
L 3256 909 
Q 3088 428 2723 176 
Q 2359 -75 1813 -75 
Q 947 -75 531 491 
Q 203 944 203 1634 
Q 203 2459 634 2926 
Q 1066 3394 1725 3394 
Q 2466 3394 2894 2905 
Q 3322 2416 3303 1406 
L 1103 1406 
Q 1113 1016 1316 798 
Q 1519 581 1822 581 
Q 2028 581 2168 693 
Q 2309 806 2381 1056 
z
M 2431 1944 
Q 2422 2325 2234 2523 
Q 2047 2722 1778 2722 
Q 1491 2722 1303 2513 
Q 1116 2303 1119 1944 
L 2431 1944 
z
" transform="scale(0.015625)"/>
      <path id="Arial-BoldMT-71" d="M 2628 -1263 
L 2628 406 
Q 2456 184 2200 54 
Q 1944 -75 1647 -75 
Q 1081 -75 716 350 
Q 284 847 284 1697 
Q 284 2497 689 2945 
Q 1094 3394 1694 3394 
Q 2025 3394 2267 3253 
Q 2509 3113 2697 2828 
L 2697 3319 
L 3506 3319 
L 3506 -1263 
L 2628 -1263 
z
M 2656 1700 
Q 2656 2209 2448 2457 
Q 2241 2706 1928 2706 
Q 1609 2706 1395 2453 
Q 1181 2200 1181 1650 
Q 1181 1103 1387 861 
Q 1594 619 1897 619 
Q 2200 619 2428 891 
Q 2656 1163 2656 1700 
z
" transform="scale(0.015625)"/>
      <path id="Arial-BoldMT-79" d="M 44 3319 
L 978 3319 
L 1772 963 
L 2547 3319 
L 3456 3319 
L 2284 125 
L 2075 -453 
Q 1959 -744 1854 -897 
Q 1750 -1050 1614 -1145 
Q 1478 -1241 1279 -1294 
Q 1081 -1347 831 -1347 
Q 578 -1347 334 -1294 
L 256 -606 
Q 463 -647 628 -647 
Q 934 -647 1081 -467 
Q 1228 -288 1306 -9 
L 44 3319 
z
" transform="scale(0.015625)"/>
     </defs>
     <use xlink:href="#Arial-BoldMT-41"/>
     <use xlink:href="#Arial-BoldMT-20" x="68.466797"/>
     <use xlink:href="#Arial-BoldMT-20" x="96.25"/>
     <use xlink:href="#Arial-BoldMT-46" x="124.033203"/>
     <use xlink:href="#Arial-BoldMT-75" x="185.117188"/>
     <use xlink:href="#Arial-BoldMT-6e" x="246.201172"/>
     <use xlink:href="#Arial-BoldMT-63" x="307.285156"/>
     <use xlink:href="#Arial-BoldMT-74" x="362.900391"/>
     <use xlink:href="#Arial-BoldMT-69" x="396.201172"/>
     <use xlink:href="#Arial-BoldMT-6f" x="423.984375"/>
     <use xlink:href="#Arial-BoldMT-6e" x="485.068359"/>
     <use xlink:href="#Arial-BoldMT-61" x="546.152344"/>
     <use xlink:href="#Arial-BoldMT-6c" x="601.767578"/>
     <use xlink:href="#Arial-BoldMT-20" x="629.550781"/>
     <use xlink:href="#Arial-BoldMT-67" x="657.333984"/>
     <use xlink:href="#Arial-BoldMT-72" x="718.417969"/>
     <use xlink:href="#Arial-BoldMT-6f" x="757.333984"/>
     <use xlink:href="#Arial-BoldMT-75" x="818.417969"/>
     <use xlink:href="#Arial-BoldMT-70" x="879.501953"/>
     <use xlink:href="#Arial-BoldMT-20" x="940.585938"/>
     <use xlink:href="#Arial-BoldMT-66" x="968.369141"/>
     <use xlink:href="#Arial-BoldMT-72" x="1001.669922"/>
     <use xlink:href="#Arial-BoldMT-65" x="1040.585938"/>
     <use xlink:href="#Arial-BoldMT-71" x="1096.201172"/>
     <use xlink:href="#Arial-BoldMT-75" x="1157.285156"/>
     <use xlink:href="#Arial-BoldMT-65" x="1218.369141"/>
     <use xlink:href="#Arial-BoldMT-6e" x="1273.984375"/>
     <use xlink:href="#Arial-BoldMT-63" x="1335.068359"/>
     <use xlink:href="#Arial-BoldMT-79" x="1390.683594"/>
    </g>
   </g>
   <g id="legend_1">
    <g id="patch_35">
     <path d="M 197.259219 44.509219 
L 245.330625 44.509219 
Q 246.730625 44.509219 246.730625 43.109219 
L 246.730625 23.92375 
Q 246.730625 22.52375 245.330625 22.52375 
L 197.259219 22.52375 
Q 195.859219 22.52375 195.859219 23.92375 
L 195.859219 43.109219 
Q 195.859219 44.509219 197.259219 44.509219 
z
" style="fill: #ffffff; opacity: 0.8; stroke: #cccccc; stroke-linejoin: miter"/>
    </g>
    <g id="patch_36">
     <path d="M 198.659219 30.334219 
L 212.659219 30.334219 
L 212.659219 25.434219 
L 198.659219 25.434219 
z
" style="fill: #4c72b0; stroke: #ffffff; stroke-width: 0.3; stroke-linejoin: miter"/>
    </g>
    <g id="text_24">
     <!-- Polymer -->
     <g transform="translate(218.259219 30.334219) scale(0.07 -0.07)">
      <defs>
       <path id="ArialMT-50" d="M 494 0 
L 494 4581 
L 2222 4581 
Q 2678 4581 2919 4538 
Q 3256 4481 3484 4323 
Q 3713 4166 3852 3881 
Q 3991 3597 3991 3256 
Q 3991 2672 3619 2267 
Q 3247 1863 2275 1863 
L 1100 1863 
L 1100 0 
L 494 0 
z
M 1100 2403 
L 2284 2403 
Q 2872 2403 3119 2622 
Q 3366 2841 3366 3238 
Q 3366 3525 3220 3729 
Q 3075 3934 2838 4000 
Q 2684 4041 2272 4041 
L 1100 4041 
L 1100 2403 
z
" transform="scale(0.015625)"/>
      </defs>
      <use xlink:href="#ArialMT-50"/>
      <use xlink:href="#ArialMT-6f" x="66.699219"/>
      <use xlink:href="#ArialMT-6c" x="122.314453"/>
      <use xlink:href="#ArialMT-79" x="144.53125"/>
      <use xlink:href="#ArialMT-6d" x="194.53125"/>
      <use xlink:href="#ArialMT-65" x="277.832031"/>
      <use xlink:href="#ArialMT-72" x="333.447266"/>
     </g>
    </g>
    <g id="patch_37">
     <path d="M 198.659219 40.317969 
L 212.659219 40.317969 
L 212.659219 35.417969 
L 198.659219 35.417969 
z
" style="fill: #c44e52; stroke: #ffffff; stroke-width: 0.3; stroke-linejoin: miter"/>
    </g>
    <g id="text_25">
     <!-- Solvent -->
     <g transform="translate(218.259219 40.317969) scale(0.07 -0.07)">
      <defs>
       <path id="ArialMT-53" d="M 288 1472 
L 859 1522 
Q 900 1178 1048 958 
Q 1197 738 1509 602 
Q 1822 466 2213 466 
Q 2559 466 2825 569 
Q 3091 672 3220 851 
Q 3350 1031 3350 1244 
Q 3350 1459 3225 1620 
Q 3100 1781 2813 1891 
Q 2628 1963 1997 2114 
Q 1366 2266 1113 2400 
Q 784 2572 623 2826 
Q 463 3081 463 3397 
Q 463 3744 659 4045 
Q 856 4347 1234 4503 
Q 1613 4659 2075 4659 
Q 2584 4659 2973 4495 
Q 3363 4331 3572 4012 
Q 3781 3694 3797 3291 
L 3216 3247 
Q 3169 3681 2898 3903 
Q 2628 4125 2100 4125 
Q 1550 4125 1298 3923 
Q 1047 3722 1047 3438 
Q 1047 3191 1225 3031 
Q 1400 2872 2139 2705 
Q 2878 2538 3153 2413 
Q 3553 2228 3743 1945 
Q 3934 1663 3934 1294 
Q 3934 928 3725 604 
Q 3516 281 3123 101 
Q 2731 -78 2241 -78 
Q 1619 -78 1198 103 
Q 778 284 539 648 
Q 300 1013 288 1472 
z
" transform="scale(0.015625)"/>
       <path id="ArialMT-76" d="M 1344 0 
L 81 3319 
L 675 3319 
L 1388 1331 
Q 1503 1009 1600 663 
Q 1675 925 1809 1294 
L 2547 3319 
L 3125 3319 
L 1869 0 
L 1344 0 
z
" transform="scale(0.015625)"/>
      </defs>
      <use xlink:href="#ArialMT-53"/>
      <use xlink:href="#ArialMT-6f" x="66.699219"/>
      <use xlink:href="#ArialMT-6c" x="122.314453"/>
      <use xlink:href="#ArialMT-76" x="144.53125"/>
      <use xlink:href="#ArialMT-65" x="194.53125"/>
      <use xlink:href="#ArialMT-6e" x="250.146484"/>
      <use xlink:href="#ArialMT-74" x="305.761719"/>
     </g>
    </g>
   </g>
  </g>
  <g id="axes_2">
   <g id="patch_38">
    <path d="M 292.944375 209.652597 
L 508.57 209.652597 
L 508.57 19.02375 
L 292.944375 19.02375 
z
" style="fill: #ffffff"/>
   </g>
   <g id="matplotlib.axis_3">
    <g id="xtick_16">
     <g id="line2d_22">
      <g>
       <use xlink:href="#m54284d9f54" x="302.74554" y="209.652597" style="stroke: #000000; stroke-width: 0.8"/>
      </g>
     </g>
     <g id="text_26">
      <!-- benzene -->
      <g transform="translate(287.051857 234.35706) rotate(-45) scale(0.055 -0.055)">
       <use xlink:href="#ArialMT-62"/>
       <use xlink:href="#ArialMT-65" x="55.615234"/>
       <use xlink:href="#ArialMT-6e" x="111.230469"/>
       <use xlink:href="#ArialMT-7a" x="166.845703"/>
       <use xlink:href="#ArialMT-65" x="216.845703"/>
       <use xlink:href="#ArialMT-6e" x="272.460938"/>
       <use xlink:href="#ArialMT-65" x="328.076172"/>
      </g>
     </g>
    </g>
    <g id="xtick_17">
     <g id="line2d_23">
      <g>
       <use xlink:href="#m54284d9f54" x="316.747204" y="209.652597" style="stroke: #000000; stroke-width: 0.8"/>
      </g>
     </g>
     <g id="text_27">
      <!-- C O -->
      <g transform="translate(309.06018 226.350401) rotate(-45) scale(0.055 -0.055)">
       <use xlink:href="#ArialMT-43"/>
       <use xlink:href="#ArialMT-20" x="72.216797"/>
       <use xlink:href="#ArialMT-4f" x="100"/>
      </g>
     </g>
    </g>
    <g id="xtick_18">
     <g id="line2d_24">
      <g>
       <use xlink:href="#m54284d9f54" x="330.748868" y="209.652597" style="stroke: #000000; stroke-width: 0.8"/>
      </g>
     </g>
     <g id="text_28">
      <!-- C O noCOO -->
      <g transform="translate(308.797401 240.614844) rotate(-45) scale(0.055 -0.055)">
       <use xlink:href="#ArialMT-43"/>
       <use xlink:href="#ArialMT-20" x="72.216797"/>
       <use xlink:href="#ArialMT-4f" x="100"/>
       <use xlink:href="#ArialMT-20" x="177.783203"/>
       <use xlink:href="#ArialMT-6e" x="205.566406"/>
       <use xlink:href="#ArialMT-6f" x="261.181641"/>
       <use xlink:href="#ArialMT-43" x="316.796875"/>
       <use xlink:href="#ArialMT-4f" x="389.013672"/>
       <use xlink:href="#ArialMT-4f" x="466.796875"/>
      </g>
     </g>
    </g>
    <g id="xtick_19">
     <g id="line2d_25">
      <g>
       <use xlink:href="#m54284d9f54" x="344.750532" y="209.652597" style="stroke: #000000; stroke-width: 0.8"/>
      </g>
     </g>
     <g id="text_29">
      <!-- ether -->
      <g transform="translate(335.114103 228.299806) rotate(-45) scale(0.055 -0.055)">
       <use xlink:href="#ArialMT-65"/>
       <use xlink:href="#ArialMT-74" x="55.615234"/>
       <use xlink:href="#ArialMT-68" x="83.398438"/>
       <use xlink:href="#ArialMT-65" x="139.013672"/>
       <use xlink:href="#ArialMT-72" x="194.628906"/>
      </g>
     </g>
    </g>
    <g id="xtick_20">
     <g id="line2d_26">
      <g>
       <use xlink:href="#m54284d9f54" x="358.752196" y="209.652597" style="stroke: #000000; stroke-width: 0.8"/>
      </g>
     </g>
     <g id="text_30">
      <!-- unbrch alkane -->
      <g transform="translate(333.549087 243.866486) rotate(-45) scale(0.055 -0.055)">
       <use xlink:href="#ArialMT-75"/>
       <use xlink:href="#ArialMT-6e" x="55.615234"/>
       <use xlink:href="#ArialMT-62" x="111.230469"/>
       <use xlink:href="#ArialMT-72" x="166.845703"/>
       <use xlink:href="#ArialMT-63" x="200.146484"/>
       <use xlink:href="#ArialMT-68" x="250.146484"/>
       <use xlink:href="#ArialMT-20" x="305.761719"/>
       <use xlink:href="#ArialMT-61" x="333.544922"/>
       <use xlink:href="#ArialMT-6c" x="389.160156"/>
       <use xlink:href="#ArialMT-6b" x="411.376953"/>
       <use xlink:href="#ArialMT-61" x="461.376953"/>
       <use xlink:href="#ArialMT-6e" x="516.992188"/>
       <use xlink:href="#ArialMT-65" x="572.607422"/>
      </g>
     </g>
    </g>
    <g id="xtick_21">
     <g id="line2d_27">
      <g>
       <use xlink:href="#m54284d9f54" x="372.75386" y="209.652597" style="stroke: #000000; stroke-width: 0.8"/>
      </g>
     </g>
     <g id="text_31">
      <!-- ester -->
      <g transform="translate(363.335584 228.081653) rotate(-45) scale(0.055 -0.055)">
       <use xlink:href="#ArialMT-65"/>
       <use xlink:href="#ArialMT-73" x="55.615234"/>
       <use xlink:href="#ArialMT-74" x="105.615234"/>
       <use xlink:href="#ArialMT-65" x="133.398438"/>
       <use xlink:href="#ArialMT-72" x="189.013672"/>
      </g>
     </g>
    </g>
    <g id="xtick_22">
     <g id="line2d_28">
      <g>
       <use xlink:href="#m54284d9f54" x="386.755524" y="209.652597" style="stroke: #000000; stroke-width: 0.8"/>
      </g>
     </g>
     <g id="text_32">
      <!-- halogen -->
      <g transform="translate(372.096703 233.276623) rotate(-45) scale(0.055 -0.055)">
       <use xlink:href="#ArialMT-68"/>
       <use xlink:href="#ArialMT-61" x="55.615234"/>
       <use xlink:href="#ArialMT-6c" x="111.230469"/>
       <use xlink:href="#ArialMT-6f" x="133.447266"/>
       <use xlink:href="#ArialMT-67" x="189.0625"/>
       <use xlink:href="#ArialMT-65" x="244.677734"/>
       <use xlink:href="#ArialMT-6e" x="300.292969"/>
      </g>
     </g>
    </g>
    <g id="xtick_23">
     <g id="line2d_29">
      <g>
       <use xlink:href="#m54284d9f54" x="400.757187" y="209.652597" style="stroke: #000000; stroke-width: 0.8"/>
      </g>
     </g>
     <g id="text_33">
      <!-- allylic oxid -->
      <g transform="translate(382.215964 237.159026) rotate(-45) scale(0.055 -0.055)">
       <use xlink:href="#ArialMT-61"/>
       <use xlink:href="#ArialMT-6c" x="55.615234"/>
       <use xlink:href="#ArialMT-6c" x="77.832031"/>
       <use xlink:href="#ArialMT-79" x="100.048828"/>
       <use xlink:href="#ArialMT-6c" x="150.048828"/>
       <use xlink:href="#ArialMT-69" x="172.265625"/>
       <use xlink:href="#ArialMT-63" x="194.482422"/>
       <use xlink:href="#ArialMT-20" x="244.482422"/>
       <use xlink:href="#ArialMT-6f" x="272.265625"/>
       <use xlink:href="#ArialMT-78" x="327.880859"/>
       <use xlink:href="#ArialMT-69" x="377.880859"/>
       <use xlink:href="#ArialMT-64" x="400.097656"/>
      </g>
     </g>
    </g>
    <g id="xtick_24">
     <g id="line2d_30">
      <g>
       <use xlink:href="#m54284d9f54" x="414.758851" y="209.652597" style="stroke: #000000; stroke-width: 0.8"/>
      </g>
     </g>
     <g id="text_34">
      <!-- alkyl halide -->
      <g transform="translate(394.700884 238.67577) rotate(-45) scale(0.055 -0.055)">
       <use xlink:href="#ArialMT-61"/>
       <use xlink:href="#ArialMT-6c" x="55.615234"/>
       <use xlink:href="#ArialMT-6b" x="77.832031"/>
       <use xlink:href="#ArialMT-79" x="127.832031"/>
       <use xlink:href="#ArialMT-6c" x="177.832031"/>
       <use xlink:href="#ArialMT-20" x="200.048828"/>
       <use xlink:href="#ArialMT-68" x="227.832031"/>
       <use xlink:href="#ArialMT-61" x="283.447266"/>
       <use xlink:href="#ArialMT-6c" x="339.0625"/>
       <use xlink:href="#ArialMT-69" x="361.279297"/>
       <use xlink:href="#ArialMT-64" x="383.496094"/>
       <use xlink:href="#ArialMT-65" x="439.111328"/>
      </g>
     </g>
    </g>
    <g id="xtick_25">
     <g id="line2d_31">
      <g>
       <use xlink:href="#m54284d9f54" x="428.760515" y="209.652597" style="stroke: #000000; stroke-width: 0.8"/>
      </g>
     </g>
     <g id="text_35">
      <!-- Al OH -->
      <g transform="translate(417.615242 229.808651) rotate(-45) scale(0.055 -0.055)">
       <use xlink:href="#ArialMT-41"/>
       <use xlink:href="#ArialMT-6c" x="66.699219"/>
       <use xlink:href="#ArialMT-20" x="88.916016"/>
       <use xlink:href="#ArialMT-4f" x="116.699219"/>
       <use xlink:href="#ArialMT-48" x="194.482422"/>
      </g>
     </g>
    </g>
    <g id="xtick_26">
     <g id="line2d_32">
      <g>
       <use xlink:href="#m54284d9f54" x="442.762179" y="209.652597" style="stroke: #000000; stroke-width: 0.8"/>
      </g>
     </g>
     <g id="text_36">
      <!-- Al OH noTert -->
      <g transform="translate(419.730275 241.695281) rotate(-45) scale(0.055 -0.055)">
       <use xlink:href="#ArialMT-41"/>
       <use xlink:href="#ArialMT-6c" x="66.699219"/>
       <use xlink:href="#ArialMT-20" x="88.916016"/>
       <use xlink:href="#ArialMT-4f" x="116.699219"/>
       <use xlink:href="#ArialMT-48" x="194.482422"/>
       <use xlink:href="#ArialMT-20" x="266.699219"/>
       <use xlink:href="#ArialMT-6e" x="294.482422"/>
       <use xlink:href="#ArialMT-6f" x="350.097656"/>
       <use xlink:href="#ArialMT-54" x="405.712891"/>
       <use xlink:href="#ArialMT-65" x="455.671875"/>
       <use xlink:href="#ArialMT-72" x="511.287109"/>
       <use xlink:href="#ArialMT-74" x="544.587891"/>
      </g>
     </g>
    </g>
    <g id="xtick_27">
     <g id="line2d_33">
      <g>
       <use xlink:href="#m54284d9f54" x="456.763843" y="209.652597" style="stroke: #000000; stroke-width: 0.8"/>
      </g>
     </g>
     <g id="text_37">
      <!-- aryl methyl -->
      <g transform="translate(437.144613 238.237032) rotate(-45) scale(0.055 -0.055)">
       <use xlink:href="#ArialMT-61"/>
       <use xlink:href="#ArialMT-72" x="55.615234"/>
       <use xlink:href="#ArialMT-79" x="88.916016"/>
       <use xlink:href="#ArialMT-6c" x="138.916016"/>
       <use xlink:href="#ArialMT-20" x="161.132812"/>
       <use xlink:href="#ArialMT-6d" x="188.916016"/>
       <use xlink:href="#ArialMT-65" x="272.216797"/>
       <use xlink:href="#ArialMT-74" x="327.832031"/>
       <use xlink:href="#ArialMT-68" x="355.615234"/>
       <use xlink:href="#ArialMT-79" x="411.230469"/>
       <use xlink:href="#ArialMT-6c" x="461.230469"/>
      </g>
     </g>
    </g>
    <g id="xtick_28">
     <g id="line2d_34">
      <g>
       <use xlink:href="#m54284d9f54" x="470.765507" y="209.652597" style="stroke: #000000; stroke-width: 0.8"/>
      </g>
     </g>
     <g id="text_38">
      <!-- ketone -->
      <g transform="translate(458.316782 231.112102) rotate(-45) scale(0.055 -0.055)">
       <use xlink:href="#ArialMT-6b"/>
       <use xlink:href="#ArialMT-65" x="50"/>
       <use xlink:href="#ArialMT-74" x="105.615234"/>
       <use xlink:href="#ArialMT-6f" x="133.398438"/>
       <use xlink:href="#ArialMT-6e" x="189.013672"/>
       <use xlink:href="#ArialMT-65" x="244.628906"/>
      </g>
     </g>
    </g>
    <g id="xtick_29">
     <g id="line2d_35">
      <g>
       <use xlink:href="#m54284d9f54" x="484.767171" y="209.652597" style="stroke: #000000; stroke-width: 0.8"/>
      </g>
     </g>
     <g id="text_39">
      <!-- ketone Topliss -->
      <g transform="translate(459.420652 244.009896) rotate(-45) scale(0.055 -0.055)">
       <use xlink:href="#ArialMT-6b"/>
       <use xlink:href="#ArialMT-65" x="50"/>
       <use xlink:href="#ArialMT-74" x="105.615234"/>
       <use xlink:href="#ArialMT-6f" x="133.398438"/>
       <use xlink:href="#ArialMT-6e" x="189.013672"/>
       <use xlink:href="#ArialMT-65" x="244.628906"/>
       <use xlink:href="#ArialMT-20" x="300.244141"/>
       <use xlink:href="#ArialMT-54" x="326.277344"/>
       <use xlink:href="#ArialMT-6f" x="376.236328"/>
       <use xlink:href="#ArialMT-70" x="431.851562"/>
       <use xlink:href="#ArialMT-6c" x="487.466797"/>
       <use xlink:href="#ArialMT-69" x="509.683594"/>
       <use xlink:href="#ArialMT-73" x="531.900391"/>
       <use xlink:href="#ArialMT-73" x="581.900391"/>
      </g>
     </g>
    </g>
    <g id="xtick_30">
     <g id="line2d_36">
      <g>
       <use xlink:href="#m54284d9f54" x="498.768835" y="209.652597" style="stroke: #000000; stroke-width: 0.8"/>
      </g>
     </g>
     <g id="text_40">
      <!-- methoxy -->
      <g transform="translate(483.2532 234.133437) rotate(-45) scale(0.055 -0.055)">
       <use xlink:href="#ArialMT-6d"/>
       <use xlink:href="#ArialMT-65" x="83.300781"/>
       <use xlink:href="#ArialMT-74" x="138.916016"/>
       <use xlink:href="#ArialMT-68" x="166.699219"/>
       <use xlink:href="#ArialMT-6f" x="222.314453"/>
       <use xlink:href="#ArialMT-78" x="277.929688"/>
       <use xlink:href="#ArialMT-79" x="327.929688"/>
      </g>
     </g>
    </g>
   </g>
   <g id="matplotlib.axis_4">
    <g id="ytick_7">
     <g id="line2d_37">
      <g>
       <use xlink:href="#m880d7c7125" x="292.944375" y="189.949737" style="stroke: #000000; stroke-width: 0.8"/>
      </g>
     </g>
     <g id="text_41">
      <!-- −0.2 -->
      <g transform="translate(270.151875 192.812862) scale(0.08 -0.08)">
       <defs>
        <path id="ArialMT-2212" d="M 3381 1997 
L 356 1997 
L 356 2522 
L 3381 2522 
L 3381 1997 
z
" transform="scale(0.015625)"/>
        <path id="ArialMT-2e" d="M 581 0 
L 581 641 
L 1222 641 
L 1222 0 
L 581 0 
z
" transform="scale(0.015625)"/>
       </defs>
       <use xlink:href="#ArialMT-2212"/>
       <use xlink:href="#ArialMT-30" x="58.398438"/>
       <use xlink:href="#ArialMT-2e" x="114.013672"/>
       <use xlink:href="#ArialMT-32" x="141.796875"/>
      </g>
     </g>
    </g>
    <g id="ytick_8">
     <g id="line2d_38">
      <g>
       <use xlink:href="#m880d7c7125" x="292.944375" y="159.162965" style="stroke: #000000; stroke-width: 0.8"/>
      </g>
     </g>
     <g id="text_42">
      <!-- −0.1 -->
      <g transform="translate(270.151875 162.02609) scale(0.08 -0.08)">
       <use xlink:href="#ArialMT-2212"/>
       <use xlink:href="#ArialMT-30" x="58.398438"/>
       <use xlink:href="#ArialMT-2e" x="114.013672"/>
       <use xlink:href="#ArialMT-31" x="141.796875"/>
      </g>
     </g>
    </g>
    <g id="ytick_9">
     <g id="line2d_39">
      <g>
       <use xlink:href="#m880d7c7125" x="292.944375" y="128.376194" style="stroke: #000000; stroke-width: 0.8"/>
      </g>
     </g>
     <g id="text_43">
      <!-- 0.0 -->
      <g transform="translate(274.824375 131.239319) scale(0.08 -0.08)">
       <use xlink:href="#ArialMT-30"/>
       <use xlink:href="#ArialMT-2e" x="55.615234"/>
       <use xlink:href="#ArialMT-30" x="83.398438"/>
      </g>
     </g>
    </g>
    <g id="ytick_10">
     <g id="line2d_40">
      <g>
       <use xlink:href="#m880d7c7125" x="292.944375" y="97.589422" style="stroke: #000000; stroke-width: 0.8"/>
      </g>
     </g>
     <g id="text_44">
      <!-- 0.1 -->
      <g transform="translate(274.824375 100.452547) scale(0.08 -0.08)">
       <use xlink:href="#ArialMT-30"/>
       <use xlink:href="#ArialMT-2e" x="55.615234"/>
       <use xlink:href="#ArialMT-31" x="83.398438"/>
      </g>
     </g>
    </g>
    <g id="ytick_11">
     <g id="line2d_41">
      <g>
       <use xlink:href="#m880d7c7125" x="292.944375" y="66.802651" style="stroke: #000000; stroke-width: 0.8"/>
      </g>
     </g>
     <g id="text_45">
      <!-- 0.2 -->
      <g transform="translate(274.824375 69.665776) scale(0.08 -0.08)">
       <use xlink:href="#ArialMT-30"/>
       <use xlink:href="#ArialMT-2e" x="55.615234"/>
       <use xlink:href="#ArialMT-32" x="83.398438"/>
      </g>
     </g>
    </g>
    <g id="ytick_12">
     <g id="line2d_42">
      <g>
       <use xlink:href="#m880d7c7125" x="292.944375" y="36.015879" style="stroke: #000000; stroke-width: 0.8"/>
      </g>
     </g>
     <g id="text_46">
      <!-- 0.3 -->
      <g transform="translate(274.824375 38.879004) scale(0.08 -0.08)">
       <defs>
        <path id="ArialMT-33" d="M 269 1209 
L 831 1284 
Q 928 806 1161 595 
Q 1394 384 1728 384 
Q 2125 384 2398 659 
Q 2672 934 2672 1341 
Q 2672 1728 2419 1979 
Q 2166 2231 1775 2231 
Q 1616 2231 1378 2169 
L 1441 2663 
Q 1497 2656 1531 2656 
Q 1891 2656 2178 2843 
Q 2466 3031 2466 3422 
Q 2466 3731 2256 3934 
Q 2047 4138 1716 4138 
Q 1388 4138 1169 3931 
Q 950 3725 888 3313 
L 325 3413 
Q 428 3978 793 4289 
Q 1159 4600 1703 4600 
Q 2078 4600 2393 4439 
Q 2709 4278 2876 4000 
Q 3044 3722 3044 3409 
Q 3044 3113 2884 2869 
Q 2725 2625 2413 2481 
Q 2819 2388 3044 2092 
Q 3269 1797 3269 1353 
Q 3269 753 2831 336 
Q 2394 -81 1725 -81 
Q 1122 -81 723 278 
Q 325 638 269 1209 
z
" transform="scale(0.015625)"/>
       </defs>
       <use xlink:href="#ArialMT-30"/>
       <use xlink:href="#ArialMT-2e" x="55.615234"/>
       <use xlink:href="#ArialMT-33" x="83.398438"/>
      </g>
     </g>
    </g>
    <g id="text_47">
     <!-- Correlation with χ -->
     <g transform="translate(264.561875 145.336299) rotate(-90) scale(0.08 -0.08)">
      <defs>
       <path id="ArialMT-77" d="M 1034 0 
L 19 3319 
L 600 3319 
L 1128 1403 
L 1325 691 
Q 1338 744 1497 1375 
L 2025 3319 
L 2603 3319 
L 3100 1394 
L 3266 759 
L 3456 1400 
L 4025 3319 
L 4572 3319 
L 3534 0 
L 2950 0 
L 2422 1988 
L 2294 2553 
L 1622 0 
L 1034 0 
z
" transform="scale(0.015625)"/>
       <path id="ArialMT-3c7" d="M 150 3319 
L 763 3319 
L 1675 1481 
L 2619 3319 
L 3238 3319 
L 2019 1056 
L 3300 -1272 
L 2659 -1272 
L 1675 644 
L 681 -1272 
L 53 -1272 
L 1331 1038 
L 150 3319 
z
" transform="scale(0.015625)"/>
      </defs>
      <use xlink:href="#ArialMT-43"/>
      <use xlink:href="#ArialMT-6f" x="72.216797"/>
      <use xlink:href="#ArialMT-72" x="127.832031"/>
      <use xlink:href="#ArialMT-72" x="161.132812"/>
      <use xlink:href="#ArialMT-65" x="194.433594"/>
      <use xlink:href="#ArialMT-6c" x="250.048828"/>
      <use xlink:href="#ArialMT-61" x="272.265625"/>
      <use xlink:href="#ArialMT-74" x="327.880859"/>
      <use xlink:href="#ArialMT-69" x="355.664062"/>
      <use xlink:href="#ArialMT-6f" x="377.880859"/>
      <use xlink:href="#ArialMT-6e" x="433.496094"/>
      <use xlink:href="#ArialMT-20" x="489.111328"/>
      <use xlink:href="#ArialMT-77" x="516.894531"/>
      <use xlink:href="#ArialMT-69" x="589.111328"/>
      <use xlink:href="#ArialMT-74" x="611.328125"/>
      <use xlink:href="#ArialMT-68" x="639.111328"/>
      <use xlink:href="#ArialMT-20" x="694.726562"/>
      <use xlink:href="#ArialMT-3c7" x="722.509766"/>
     </g>
    </g>
   </g>
   <g id="line2d_43">
    <path d="M 302.74554 86.786493 
L 302.74554 195.347589 
" clip-path="url(#pb721a7dd7c)" style="fill: none; stroke: #808080; stroke-opacity: 0.5; stroke-width: 0.5; stroke-linecap: square"/>
   </g>
   <g id="line2d_44">
    <path d="M 316.747204 110.872536 
L 316.747204 126.156716 
" clip-path="url(#pb721a7dd7c)" style="fill: none; stroke: #808080; stroke-opacity: 0.5; stroke-width: 0.5; stroke-linecap: square"/>
   </g>
   <g id="line2d_45">
    <path d="M 330.748868 110.75064 
L 330.748868 132.968252 
" clip-path="url(#pb721a7dd7c)" style="fill: none; stroke: #808080; stroke-opacity: 0.5; stroke-width: 0.5; stroke-linecap: square"/>
   </g>
   <g id="line2d_46">
    <path d="M 344.750532 118.938024 
L 344.750532 154.821368 
" clip-path="url(#pb721a7dd7c)" style="fill: none; stroke: #808080; stroke-opacity: 0.5; stroke-width: 0.5; stroke-linecap: square"/>
   </g>
   <g id="line2d_47">
    <path d="M 358.752196 158.086317 
L 358.752196 70.541337 
" clip-path="url(#pb721a7dd7c)" style="fill: none; stroke: #808080; stroke-opacity: 0.5; stroke-width: 0.5; stroke-linecap: square"/>
   </g>
   <g id="line2d_48">
    <path d="M 372.75386 140.103165 
L 372.75386 143.403839 
" clip-path="url(#pb721a7dd7c)" style="fill: none; stroke: #808080; stroke-opacity: 0.5; stroke-width: 0.5; stroke-linecap: square"/>
   </g>
   <g id="line2d_49">
    <path d="M 386.755524 124.186112 
L 386.755524 200.98765 
" clip-path="url(#pb721a7dd7c)" style="fill: none; stroke: #808080; stroke-opacity: 0.5; stroke-width: 0.5; stroke-linecap: square"/>
   </g>
   <g id="line2d_50">
    <path d="M 400.757187 113.997063 
L 400.757187 148.606688 
" clip-path="url(#pb721a7dd7c)" style="fill: none; stroke: #808080; stroke-opacity: 0.5; stroke-width: 0.5; stroke-linecap: square"/>
   </g>
   <g id="line2d_51">
    <path d="M 414.758851 115.227585 
L 414.758851 191.971458 
" clip-path="url(#pb721a7dd7c)" style="fill: none; stroke: #808080; stroke-opacity: 0.5; stroke-width: 0.5; stroke-linecap: square"/>
   </g>
   <g id="line2d_52">
    <path d="M 428.760515 161.894285 
L 428.760515 27.688698 
" clip-path="url(#pb721a7dd7c)" style="fill: none; stroke: #808080; stroke-opacity: 0.5; stroke-width: 0.5; stroke-linecap: square"/>
   </g>
   <g id="line2d_53">
    <path d="M 442.762179 161.894285 
L 442.762179 27.688698 
" clip-path="url(#pb721a7dd7c)" style="fill: none; stroke: #808080; stroke-opacity: 0.5; stroke-width: 0.5; stroke-linecap: square"/>
   </g>
   <g id="line2d_54">
    <path d="M 456.763843 136.319035 
L 456.763843 176.736404 
" clip-path="url(#pb721a7dd7c)" style="fill: none; stroke: #808080; stroke-opacity: 0.5; stroke-width: 0.5; stroke-linecap: square"/>
   </g>
   <g id="line2d_55">
    <path d="M 470.765507 50.974676 
L 470.765507 131.922933 
" clip-path="url(#pb721a7dd7c)" style="fill: none; stroke: #808080; stroke-opacity: 0.5; stroke-width: 0.5; stroke-linecap: square"/>
   </g>
   <g id="line2d_56">
    <path d="M 484.767171 55.892803 
L 484.767171 131.922933 
" clip-path="url(#pb721a7dd7c)" style="fill: none; stroke: #808080; stroke-opacity: 0.5; stroke-width: 0.5; stroke-linecap: square"/>
   </g>
   <g id="line2d_57">
    <path d="M 498.768835 132.706216 
L 498.768835 131.64817 
" clip-path="url(#pb721a7dd7c)" style="fill: none; stroke: #808080; stroke-opacity: 0.5; stroke-width: 0.5; stroke-linecap: square"/>
   </g>
   <g id="line2d_58">
    <path d="M 292.944375 128.376194 
L 508.57 128.376194 
" clip-path="url(#pb721a7dd7c)" style="fill: none; stroke-dasharray: 1.85,0.8; stroke-dashoffset: 0; stroke: #808080; stroke-width: 0.5"/>
   </g>
   <g id="patch_39">
    <path d="M 292.944375 209.652597 
L 292.944375 19.02375 
" style="fill: none; stroke: #000000; stroke-width: 0.8; stroke-linejoin: miter; stroke-linecap: square"/>
   </g>
   <g id="patch_40">
    <path d="M 292.944375 209.652597 
L 508.57 209.652597 
" style="fill: none; stroke: #000000; stroke-width: 0.8; stroke-linejoin: miter; stroke-linecap: square"/>
   </g>
   <g id="PathCollection_1">
    <defs>
     <path id="me019d214de" d="M 0 2.236068 
C 0.593012 2.236068 1.161816 2.000462 1.581139 1.581139 
C 2.000462 1.161816 2.236068 0.593012 2.236068 0 
C 2.236068 -0.593012 2.000462 -1.161816 1.581139 -1.581139 
C 1.161816 -2.000462 0.593012 -2.236068 0 -2.236068 
C -0.593012 -2.236068 -1.161816 -2.000462 -1.581139 -1.581139 
C -2.000462 -1.161816 -2.236068 -0.593012 -2.236068 0 
C -2.236068 0.593012 -2.000462 1.161816 -1.581139 1.581139 
C -1.161816 2.000462 -0.593012 2.236068 0 2.236068 
z
" style="stroke: #4c72b0"/>
    </defs>
    <g clip-path="url(#pb721a7dd7c)">
     <use xlink:href="#me019d214de" x="302.74554" y="86.786493" style="fill: #4c72b0; stroke: #4c72b0"/>
     <use xlink:href="#me019d214de" x="316.747204" y="110.872536" style="fill: #4c72b0; stroke: #4c72b0"/>
     <use xlink:href="#me019d214de" x="330.748868" y="110.75064" style="fill: #4c72b0; stroke: #4c72b0"/>
     <use xlink:href="#me019d214de" x="344.750532" y="118.938024" style="fill: #4c72b0; stroke: #4c72b0"/>
     <use xlink:href="#me019d214de" x="358.752196" y="158.086317" style="fill: #4c72b0; stroke: #4c72b0"/>
     <use xlink:href="#me019d214de" x="372.75386" y="140.103165" style="fill: #4c72b0; stroke: #4c72b0"/>
     <use xlink:href="#me019d214de" x="386.755524" y="124.186112" style="fill: #4c72b0; stroke: #4c72b0"/>
     <use xlink:href="#me019d214de" x="400.757187" y="113.997063" style="fill: #4c72b0; stroke: #4c72b0"/>
     <use xlink:href="#me019d214de" x="414.758851" y="115.227585" style="fill: #4c72b0; stroke: #4c72b0"/>
     <use xlink:href="#me019d214de" x="428.760515" y="161.894285" style="fill: #4c72b0; stroke: #4c72b0"/>
     <use xlink:href="#me019d214de" x="442.762179" y="161.894285" style="fill: #4c72b0; stroke: #4c72b0"/>
     <use xlink:href="#me019d214de" x="456.763843" y="136.319035" style="fill: #4c72b0; stroke: #4c72b0"/>
     <use xlink:href="#me019d214de" x="470.765507" y="50.974676" style="fill: #4c72b0; stroke: #4c72b0"/>
     <use xlink:href="#me019d214de" x="484.767171" y="55.892803" style="fill: #4c72b0; stroke: #4c72b0"/>
     <use xlink:href="#me019d214de" x="498.768835" y="132.706216" style="fill: #4c72b0; stroke: #4c72b0"/>
    </g>
   </g>
   <g id="PathCollection_2">
    <defs>
     <path id="m180d93f577" d="M -2.236068 2.236068 
L 2.236068 2.236068 
L 2.236068 -2.236068 
L -2.236068 -2.236068 
z
" style="stroke: #c44e52"/>
    </defs>
    <g clip-path="url(#pb721a7dd7c)">
     <use xlink:href="#m180d93f577" x="302.74554" y="195.347589" style="fill: #c44e52; stroke: #c44e52"/>
     <use xlink:href="#m180d93f577" x="316.747204" y="126.156716" style="fill: #c44e52; stroke: #c44e52"/>
     <use xlink:href="#m180d93f577" x="330.748868" y="132.968252" style="fill: #c44e52; stroke: #c44e52"/>
     <use xlink:href="#m180d93f577" x="344.750532" y="154.821368" style="fill: #c44e52; stroke: #c44e52"/>
     <use xlink:href="#m180d93f577" x="358.752196" y="70.541337" style="fill: #c44e52; stroke: #c44e52"/>
     <use xlink:href="#m180d93f577" x="372.75386" y="143.403839" style="fill: #c44e52; stroke: #c44e52"/>
     <use xlink:href="#m180d93f577" x="386.755524" y="200.98765" style="fill: #c44e52; stroke: #c44e52"/>
     <use xlink:href="#m180d93f577" x="400.757187" y="148.606688" style="fill: #c44e52; stroke: #c44e52"/>
     <use xlink:href="#m180d93f577" x="414.758851" y="191.971458" style="fill: #c44e52; stroke: #c44e52"/>
     <use xlink:href="#m180d93f577" x="428.760515" y="27.688698" style="fill: #c44e52; stroke: #c44e52"/>
     <use xlink:href="#m180d93f577" x="442.762179" y="27.688698" style="fill: #c44e52; stroke: #c44e52"/>
     <use xlink:href="#m180d93f577" x="456.763843" y="176.736404" style="fill: #c44e52; stroke: #c44e52"/>
     <use xlink:href="#m180d93f577" x="470.765507" y="131.922933" style="fill: #c44e52; stroke: #c44e52"/>
     <use xlink:href="#m180d93f577" x="484.767171" y="131.922933" style="fill: #c44e52; stroke: #c44e52"/>
     <use xlink:href="#m180d93f577" x="498.768835" y="131.64817" style="fill: #c44e52; stroke: #c44e52"/>
    </g>
   </g>
   <g id="text_48">
    <!-- B  FG-χ correlation -->
    <g transform="translate(292.944375 13.02375) scale(0.08 -0.08)">
     <defs>
      <path id="Arial-BoldMT-42" d="M 469 4581 
L 2300 4581 
Q 2844 4581 3111 4536 
Q 3378 4491 3589 4347 
Q 3800 4203 3940 3964 
Q 4081 3725 4081 3428 
Q 4081 3106 3907 2837 
Q 3734 2569 3438 2434 
Q 3856 2313 4081 2019 
Q 4306 1725 4306 1328 
Q 4306 1016 4161 720 
Q 4016 425 3764 248 
Q 3513 72 3144 31 
Q 2913 6 2028 0 
L 469 0 
L 469 4581 
z
M 1394 3819 
L 1394 2759 
L 2000 2759 
Q 2541 2759 2672 2775 
Q 2909 2803 3045 2939 
Q 3181 3075 3181 3297 
Q 3181 3509 3064 3642 
Q 2947 3775 2716 3803 
Q 2578 3819 1925 3819 
L 1394 3819 
z
M 1394 1997 
L 1394 772 
L 2250 772 
Q 2750 772 2884 800 
Q 3091 838 3220 983 
Q 3350 1128 3350 1372 
Q 3350 1578 3250 1722 
Q 3150 1866 2961 1931 
Q 2772 1997 2141 1997 
L 1394 1997 
z
" transform="scale(0.015625)"/>
      <path id="Arial-BoldMT-47" d="M 2597 1684 
L 2597 2456 
L 4591 2456 
L 4591 631 
Q 4300 350 3748 136 
Q 3197 -78 2631 -78 
Q 1913 -78 1378 223 
Q 844 525 575 1086 
Q 306 1647 306 2306 
Q 306 3022 606 3578 
Q 906 4134 1484 4431 
Q 1925 4659 2581 4659 
Q 3434 4659 3914 4301 
Q 4394 3944 4531 3313 
L 3613 3141 
Q 3516 3478 3248 3673 
Q 2981 3869 2581 3869 
Q 1975 3869 1617 3484 
Q 1259 3100 1259 2344 
Q 1259 1528 1621 1120 
Q 1984 713 2572 713 
Q 2863 713 3155 827 
Q 3447 941 3656 1103 
L 3656 1684 
L 2597 1684 
z
" transform="scale(0.015625)"/>
      <path id="Arial-BoldMT-2d" d="M 359 1222 
L 359 2100 
L 2084 2100 
L 2084 1222 
L 359 1222 
z
" transform="scale(0.015625)"/>
      <path id="Arial-BoldMT-3c7" d="M 128 3319 
L 1097 3319 
L 1834 1784 
L 2634 3319 
L 3553 3319 
L 2366 1050 
L 3641 -1263 
L 2634 -1263 
L 1834 316 
L 1006 -1263 
L 53 -1263 
L 1322 1050 
L 128 3319 
z
" transform="scale(0.015625)"/>
     </defs>
     <use xlink:href="#Arial-BoldMT-42"/>
     <use xlink:href="#Arial-BoldMT-20" x="72.216797"/>
     <use xlink:href="#Arial-BoldMT-20" x="100"/>
     <use xlink:href="#Arial-BoldMT-46" x="127.783203"/>
     <use xlink:href="#Arial-BoldMT-47" x="188.867188"/>
     <use xlink:href="#Arial-BoldMT-2d" x="266.650391"/>
     <use xlink:href="#Arial-BoldMT-3c7" x="299.951172"/>
     <use xlink:href="#Arial-BoldMT-20" x="357.519531"/>
     <use xlink:href="#Arial-BoldMT-63" x="385.302734"/>
     <use xlink:href="#Arial-BoldMT-6f" x="440.917969"/>
     <use xlink:href="#Arial-BoldMT-72" x="502.001953"/>
     <use xlink:href="#Arial-BoldMT-72" x="540.917969"/>
     <use xlink:href="#Arial-BoldMT-65" x="579.833984"/>
     <use xlink:href="#Arial-BoldMT-6c" x="635.449219"/>
     <use xlink:href="#Arial-BoldMT-61" x="663.232422"/>
     <use xlink:href="#Arial-BoldMT-74" x="718.847656"/>
     <use xlink:href="#Arial-BoldMT-69" x="752.148438"/>
     <use xlink:href="#Arial-BoldMT-6f" x="779.931641"/>
     <use xlink:href="#Arial-BoldMT-6e" x="841.015625"/>
    </g>
   </g>
   <g id="legend_2">
    <g id="patch_41">
     <path d="M 455.598594 206.152597 
L 503.67 206.152597 
Q 505.07 206.152597 505.07 204.752597 
L 505.07 185.567129 
Q 505.07 184.167129 503.67 184.167129 
L 455.598594 184.167129 
Q 454.198594 184.167129 454.198594 185.567129 
L 454.198594 204.752597 
Q 454.198594 206.152597 455.598594 206.152597 
z
" style="fill: #ffffff; opacity: 0.8; stroke: #cccccc; stroke-linejoin: miter"/>
    </g>
    <g id="PathCollection_3">
     <g>
      <use xlink:href="#me019d214de" x="463.998594" y="190.140097" style="fill: #4c72b0; stroke: #4c72b0"/>
     </g>
    </g>
    <g id="text_49">
     <!-- Polymer -->
     <g transform="translate(476.598594 191.977597) scale(0.07 -0.07)">
      <use xlink:href="#ArialMT-50"/>
      <use xlink:href="#ArialMT-6f" x="66.699219"/>
      <use xlink:href="#ArialMT-6c" x="122.314453"/>
      <use xlink:href="#ArialMT-79" x="144.53125"/>
      <use xlink:href="#ArialMT-6d" x="194.53125"/>
      <use xlink:href="#ArialMT-65" x="277.832031"/>
      <use xlink:href="#ArialMT-72" x="333.447266"/>
     </g>
    </g>
    <g id="PathCollection_4">
     <g>
      <use xlink:href="#m180d93f577" x="463.998594" y="200.123847" style="fill: #c44e52; stroke: #c44e52"/>
     </g>
    </g>
    <g id="text_50">
     <!-- Solvent -->
     <g transform="translate(476.598594 201.961347) scale(0.07 -0.07)">
      <use xlink:href="#ArialMT-53"/>
      <use xlink:href="#ArialMT-6f" x="66.699219"/>
      <use xlink:href="#ArialMT-6c" x="122.314453"/>
      <use xlink:href="#ArialMT-76" x="144.53125"/>
      <use xlink:href="#ArialMT-65" x="194.53125"/>
      <use xlink:href="#ArialMT-6e" x="250.146484"/>
      <use xlink:href="#ArialMT-74" x="305.761719"/>
     </g>
    </g>
   </g>
  </g>
 </g>
 <defs>
  <clipPath id="pbc4bb08807">
   <rect x="34.605" y="19.02375" width="215.625625" height="190.628847"/>
  </clipPath>
  <clipPath id="pb721a7dd7c">
   <rect x="292.944375" y="19.02375" width="215.625625" height="190.628847"/>
  </clipPath>
 </defs>
</svg>
